<?xml version="1.0" standalone="no"?>
<!DOCTYPE svg PUBLIC "-//W3C//DTD SVG 1.1//EN" "http://www.w3.org/Graphics/SVG/1.1/DTD/svg11.dtd" >
<svg xmlns="http://www.w3.org/2000/svg" xmlns:xlink="http://www.w3.org/1999/xlink" version="1.1">
<metadata></metadata>
<defs>
<font id="sporting_grotesquebold" horiz-adv-x="1802" >
<font-face units-per-em="2048" ascent="1591" descent="-457" />
<missing-glyph horiz-adv-x="888" />
<glyph unicode="&#xfb01;" horiz-adv-x="1564" d="M20 938v199h306q-4 2 -10 6t-19.5 17t-24 28.5t-18.5 41.5t-8 56q0 61 35.5 119t102.5 107t175.5 78.5t241.5 29.5q92 0 174 -13t143 -35.5t114 -51.5t89.5 -61.5t65.5 -64.5t46.5 -61t29 -51.5t15.5 -35.5l5 -13l-353 -90q0 5 -1 14.5t-7 37t-17 52t-34.5 55t-55 52 t-83.5 36.5t-115 15q-74 0 -126.5 -18.5t-77.5 -49t-35.5 -60t-10.5 -60.5q0 -23 8.5 -43t16.5 -28l8 -9h766v-1137h-338v938h-407v-938h-338v938h-263z" />
<glyph unicode="&#xfb02;" horiz-adv-x="1531" d="M0 938v199h305q-4 2 -10 6t-19.5 17t-24 28.5t-18.5 41.5t-8 56q0 61 35.5 119t102.5 107t175.5 78.5t241.5 29.5q136 0 230 -41v12q74 0 158.5 7.5t131.5 14.5l48 7v-1620h-338v938h-410v-938h-338v938h-262zM547 1217q0 -23 8.5 -43t16.5 -28l8 -9h430v204 q-77 64 -213 64q-74 0 -126.5 -18.5t-77.5 -49t-35.5 -60t-10.5 -60.5z" />
<glyph horiz-adv-x="0" />
<glyph horiz-adv-x="682" />
<glyph horiz-adv-x="0" />
<glyph horiz-adv-x="0" />
<glyph unicode="&#xd;" horiz-adv-x="888" />
<glyph unicode=" "  horiz-adv-x="888" />
<glyph unicode="&#x09;" horiz-adv-x="888" />
<glyph unicode="&#xa0;" horiz-adv-x="888" />
<glyph unicode="!" horiz-adv-x="733" d="M184 0v307h365v-307h-365zM184 1591h365l-62 -1099h-241z" />
<glyph unicode="&#x22;" horiz-adv-x="935" d="M184 983v608h199v-608h-199zM553 983v608h199v-608h-199z" />
<glyph unicode="#" horiz-adv-x="1331" d="M82 477v103h244l65 307h-205v102h228l104 475h115l-105 -475h363l104 475h115l-106 -475h245v-102h-268l-68 -307h228v-103h-250l-105 -477h-110l104 477h-364l-105 -477h-112l104 477h-221zM438 580h365l65 307h-362z" />
<glyph unicode="$" d="M70 518l374 96q-1 -7 -1.5 -19t4 -47.5t16 -68t40 -75t69.5 -75t111.5 -60t160.5 -38.5v439l-238 51q-229 49 -354 160.5t-125 263.5q0 93 45 176.5t131 150t225.5 106.5t315.5 42v453h88v-455q113 -4 210 -23t166 -47t126 -63t93.5 -73t64 -75.5t41 -70.5t22 -59 t10.5 -41l2 -15l-375 -102q0 6 -0.5 16t-6.5 39.5t-17.5 57t-38 62.5t-63.5 62t-97.5 48.5t-136.5 29.5v-397l291 -58q142 -28 243 -74.5t157.5 -108t82 -130t25.5 -152.5q0 -150 -101 -258t-270.5 -160.5t-386.5 -52.5q-7 0 -21 1t-20 1v-432h-88v434q-167 11 -301 50.5 t-219 94t-143 124t-83 136.5t-28 136zM504 1184q0 -72 72.5 -116t207.5 -71l60 -12v383q-157 -1 -248.5 -53t-91.5 -131zM932 225h35q182 0 285.5 50.5t103.5 140.5q0 22 -3 40t-12 34t-17.5 28.5t-26.5 24t-30.5 19.5t-39.5 17.5t-44 15t-52 14t-55.5 13t-63.5 13.5l-80 16 v-426z" />
<glyph unicode="%" horiz-adv-x="1892" d="M41 1208q0 184 122 299t310 115t310 -115t122 -299t-122 -297.5t-310 -113.5t-310 113.5t-122 297.5zM166 1208q0 -139 80 -227t227 -88t227 88t80 227t-80 227.5t-227 88.5t-227 -88.5t-80 -227.5zM477 41l842 1565l98 -50l-846 -1562zM987 389q0 184 122 299t310 115 t310 -115t122 -299t-122 -298t-310 -114t-310 114t-122 298zM1112 389q0 -139 80 -227t227 -88t227 88t80 227t-80 227.5t-227 88.5t-227 -88.5t-80 -227.5z" />
<glyph unicode="&#x26;" horiz-adv-x="1929" d="M41 0v240l637 598q-271 305 -551 530v223h1528v-239l-586 -547q238 -268 453 -580h366v-225h-217q62 -98 115.5 -191t76.5 -137l23 -43l-368 -100q-9 22 -26 61.5t-78.5 162.5t-133.5 247h-1239zM451 225h690q-153 231 -277 387zM465 1368q192 -144 403 -352l377 352 h-780z" />
<glyph unicode="'" horiz-adv-x="567" d="M184 983v608h199v-608h-199z" />
<glyph unicode="(" horiz-adv-x="780" d="M82 694q0 132 31 255t83.5 218t120 176t141.5 136t145.5 89t135.5 44v-84q-47 -10 -102 -39t-115.5 -77t-116 -119t-100.5 -157t-71.5 -201t-26.5 -241t26.5 -241t71.5 -200.5t100.5 -157t116 -119t115.5 -76.5t102 -39v-84q-77 12 -164 57t-175 126t-158.5 185t-115 248 t-44.5 301z" />
<glyph unicode=")" horiz-adv-x="780" d="M41 -139q47 10 102 39t115.5 76.5t116 119t100.5 157t71.5 200.5t26.5 241t-26.5 241t-71.5 201t-100.5 157t-116 119t-115.5 77t-102 39v84q64 -10 135.5 -44t145.5 -89t141.5 -136t120 -176t83.5 -218t31 -255q0 -157 -44.5 -301t-115 -248t-158.5 -185t-175 -126 t-164 -57v84z" />
<glyph unicode="*" horiz-adv-x="888" d="M145 1565v90l232 -21l-172 162l61 64l152 -183l-12 238h88l-11 -238l150 178l63 -61l-172 -158l228 19v-90l-232 16l176 -151l-63 -62l-150 170l11 -229h-88l18 227l-158 -172l-61 63l172 142z" />
<glyph unicode="+" horiz-adv-x="1331" d="M41 512v102h573v574h103v-574h573v-102h-573v-573h-103v573h-573z" />
<glyph unicode="," horiz-adv-x="610" d="M80 -307q9 4 25 12.5t56.5 38t72.5 62.5t61 85.5t35 108.5h-207v307h364v-256q0 -71 -20.5 -139t-50 -115t-59 -84t-49.5 -55l-21 -18z" />
<glyph unicode="-" horiz-adv-x="1028" d="M82 508v199h864v-199h-864z" />
<glyph unicode="." horiz-adv-x="610" d="M123 0v307h364v-307h-364z" />
<glyph unicode="/" horiz-adv-x="501" d="M-80 -195l557 1688l105 -33l-562 -1685z" />
<glyph unicode="0" d="M129 797q0 181 48.5 331t143 260t242.5 171t338 61q189 0 336.5 -61t242 -171t143 -260t48.5 -331t-48.5 -330.5t-143 -260t-242 -172t-336.5 -61.5t-337.5 61.5t-242.5 172t-143 260t-49 330.5zM508 797q0 -121 21.5 -221t66 -180.5t122.5 -125.5t183 -45 q104 0 181.5 45t122 125.5t66 180.5t21.5 221q0 122 -21.5 222t-66 180t-122 124.5t-181.5 44.5q-85 0 -152 -29.5t-111.5 -81t-74 -124.5t-42.5 -156t-13 -180z" />
<glyph unicode="1" d="M203 0v225h641v1000q-1 -13 -5.5 -28t-20.5 -44t-41.5 -55t-75 -56t-113.5 -51t-164 -35t-221 -14v264q165 0 280 18.5t198.5 62.5t123 119t39.5 185h364v-1366h451v-225h-1456z" />
<glyph unicode="2" d="M174 0v205q13 5 36.5 14.5t94.5 41t140.5 66t163.5 87t175 106t163.5 121.5t140.5 135t94.5 145.5t36.5 153.5q0 57 -20 108t-59.5 93t-106.5 67t-154 25q-153 0 -236.5 -78t-83.5 -200q0 -64 27 -120.5t65 -91t76 -60t65 -36.5l27 -10l-385 -104q-10 5 -27 15t-60 48 t-76 82t-60 119t-27 158q0 76 26.5 150.5t83.5 143.5t137.5 121t198 83.5t255.5 31.5q173 0 310 -41t224 -114t132.5 -170t45.5 -212q0 -86 -32.5 -170t-84 -153.5t-129.5 -138.5t-153 -122t-171.5 -107.5t-169 -90.5t-159.5 -76h930v-225h-1454z" />
<glyph unicode="3" d="M117 565l381 99q0 -6 -0.5 -15.5t1.5 -39.5t7.5 -59t19 -68.5t34 -73.5t55.5 -69t79.5 -59t110 -39.5t143.5 -15.5q158 0 256.5 67t98.5 179q0 123 -100 180.5t-277 57.5h-193v217h152q191 0 283 57.5t92 161.5q0 100 -81 161.5t-204 61.5q-68 0 -125 -13.5t-95.5 -36 t-69 -52t-48 -62t-30 -64.5t-16.5 -61.5t-6 -52t-1 -36.5v-13l-383 104q2 11 6 30.5t25 75.5t51 107t90 113t135.5 107t192.5 75.5t257 30.5q305 0 492.5 -130t187.5 -329q0 -54 -16 -101.5t-40 -80t-57.5 -60t-62.5 -43.5t-61 -28.5t-47 -16.5t-27 -6q14 -2 27.5 -5 t51.5 -15.5t69.5 -28t71.5 -44t67 -63.5t46 -87t19 -113q0 -101 -39.5 -183.5t-108 -140t-163 -97t-203.5 -57.5t-231 -18q-162 0 -294.5 32.5t-215 85t-144.5 115.5t-91.5 126t-47.5 115.5t-21 84.5z" />
<glyph unicode="4" d="M41 379v272l928 940h430v-981h336v-231h-336v-379h-365v379h-993zM397 610h637v656z" />
<glyph unicode="5" d="M115 524l381 99q0 -5 -0.5 -14t1 -36t6.5 -53.5t18 -62.5t32 -66.5t52.5 -62t76 -53.5t105 -36t137.5 -14q168 0 272 89t104 221q0 131 -104 220t-272 89q-61 0 -118 -11.5t-94.5 -28t-67 -32.5t-42.5 -28l-14 -11h-355l170 858h1201v-223h-891l-92 -403q5 5 15 14 t46 31.5t79 40t115.5 31.5t153.5 14q172 0 320 -69t238.5 -198.5t90.5 -291.5q0 -176 -94.5 -304.5t-264 -194t-396.5 -65.5q-160 0 -291 30.5t-212.5 79t-143 107t-91.5 117.5t-47.5 107.5t-20.5 79.5z" />
<glyph unicode="6" d="M123 797q0 180 56 330t162.5 260t271 171.5t370.5 61.5q99 0 186 -13.5t151.5 -36.5t119.5 -53t92.5 -62.5t67 -65.5t47 -63t28.5 -53t15 -37l4 -13l-377 -103q-1 5 -2.5 14t-10.5 35t-22.5 49t-40.5 52t-62 49.5t-89.5 34.5t-120.5 14q-154 0 -263 -79.5t-159.5 -216 t-44.5 -314.5q3 7 8.5 18t28 44t50 62.5t76 66t104.5 62.5t137.5 44t172.5 18q89 0 173 -20.5t159 -63t131.5 -103.5t89.5 -148t33 -189q0 -167 -98.5 -299t-269.5 -204.5t-382 -72.5q-189 0 -340 61.5t-249.5 171t-150.5 260.5t-52 331zM541 510q1 -6 4 -16t15 -40 t28.5 -57t47 -59.5t67 -56.5t91.5 -40t119 -16q167 0 269 83t102 202q0 136 -87 223.5t-245 87.5q-77 0 -141.5 -17t-106 -44.5t-73 -60.5t-48 -66.5t-27 -61t-12.5 -44.5z" />
<glyph unicode="7" d="M66 1368v223h1671v-264q-11 -3 -30 -8.5t-76.5 -29t-114.5 -55t-134 -89t-144 -126.5t-136 -173t-118.5 -223t-83 -280.5t-38.5 -342.5h-385q10 187 46 353t84.5 288.5t116 228.5t130.5 176.5t138.5 130t129 91.5t112.5 57.5t79 31.5t39 11h-1286z" />
<glyph unicode="8" d="M111 422q0 64 21.5 119t53 92t75.5 67.5t81.5 47t79 29.5t59.5 16.5t31 5.5q-15 3 -36.5 9.5t-64.5 22.5t-81.5 43t-75.5 63.5t-59.5 92.5t-22.5 121q0 136 95.5 243.5t262 166.5t371.5 59q207 0 372.5 -53t261 -151t95.5 -224q0 -57 -18.5 -107.5t-46.5 -85t-64.5 -64 t-71 -47t-67 -30t-50.5 -17t-24 -5.5q9 -1 27 -5t58.5 -16.5t79.5 -30t84 -47.5t78 -66.5t55 -91t22 -116.5q0 -146 -102.5 -258t-282 -172t-406.5 -60q-228 0 -407 54t-281 157t-102 238zM489 463q0 -100 104.5 -169t307.5 -69t306.5 68.5t103.5 169.5t-103.5 169 t-306.5 68t-307.5 -68.5t-104.5 -168.5zM553 1151q0 -95 92 -156t256 -61t257 61t93 156t-93 156t-257 61t-256 -61t-92 -156z" />
<glyph unicode="9" d="M109 371l376 102q1 -5 2.5 -14t10.5 -35t22.5 -49t41 -52t62.5 -49.5t89.5 -34.5t120.5 -14q154 0 262.5 80t159 216.5t44.5 314.5q-3 -7 -8.5 -18t-28 -44t-50 -63t-76 -66.5t-104.5 -62.5t-137.5 -44t-172.5 -18q-89 0 -173 20.5t-159 63t-131.5 103.5t-89.5 148 t-33 189q0 167 98.5 299t269.5 204.5t382 72.5q189 0 340 -61t249.5 -171t150.5 -260.5t52 -330.5t-56 -330t-162.5 -260.5t-271 -172t-370.5 -61.5q-99 0 -186 13.5t-151.5 36.5t-119.5 53t-92 63t-66.5 66t-47 63t-28.5 53t-15 37zM518 1083q0 -136 87 -223.5t245 -87.5 q77 0 141.5 17t106 44.5t73.5 61t48.5 66.5t27 60.5t13.5 44.5l2 17q-1 6 -4 16t-15.5 40t-28.5 57t-46.5 59.5t-67.5 56.5t-92 40t-119 16q-167 0 -269 -83t-102 -202z" />
<glyph unicode=":" horiz-adv-x="610" d="M123 0v307h364v-307h-364zM123 829v308h364v-308h-364z" />
<glyph unicode=";" horiz-adv-x="610" d="M80 -307q9 4 25 12.5t56.5 38t72.5 62.5t61 85.5t35 108.5h-207v307h364v-256q0 -71 -20.5 -139t-50 -115t-59 -84t-49.5 -55l-21 -18zM123 829v308h364v-308h-364z" />
<glyph unicode="&#x3c;" horiz-adv-x="1331" d="M154 481v107l929 512l54 -94l-858 -471l856 -472l-54 -92z" />
<glyph unicode="=" horiz-adv-x="1331" d="M82 266v103h1167v-103h-1167zM82 758v102h1167v-102h-1167z" />
<glyph unicode="&#x3e;" horiz-adv-x="1331" d="M197 63l856 472l-856 471l51 94l930 -512v-107l-928 -510z" />
<glyph unicode="?" horiz-adv-x="1622" d="M41 1151q1 10 4 27t22 65.5t49.5 93t92.5 98.5t143.5 93t211 65.5t286.5 26.5q165 0 304 -37t231.5 -100t144 -146.5t51.5 -177.5q0 -73 -23.5 -134t-63.5 -104.5t-91.5 -79.5t-108.5 -63.5t-114 -52t-108.5 -48.5t-91.5 -50t-63.5 -60t-23.5 -75h-242 q-23 58 -11.5 108.5t46 85t86.5 69t109.5 61.5t115 61t103.5 68.5t75 84t29 107.5q0 105 -92.5 168t-249.5 63q-93 0 -167.5 -17.5t-120 -45.5t-78.5 -62.5t-48 -68.5t-23 -62t-9 -46v-17zM590 0v307h364v-307h-364z" />
<glyph unicode="@" horiz-adv-x="2347" d="M123 541q0 236 83.5 437t230.5 341.5t354 219.5t448 79q154 0 300.5 -40t269.5 -116.5t216.5 -180.5t146 -239.5t52.5 -285.5q0 -115 -24 -216.5t-64 -176.5t-92.5 -137.5t-109 -103.5t-114.5 -69t-108 -40.5t-90 -12.5q-109 0 -149.5 58t-40.5 210q-6 -11 -12.5 -21.5 t-31 -42.5t-50.5 -58.5t-70 -60t-90.5 -57t-111 -39.5t-132.5 -16q-115 0 -208.5 37t-152.5 98.5t-90.5 138t-31.5 159.5q0 133 40.5 253t110.5 210.5t161.5 157.5t197 101.5t213.5 34.5q72 0 132.5 -16t99.5 -41.5t69.5 -56.5t46 -61.5t26 -56t12.5 -41.5l3 -16l141 263 h197l-218 -942q-2 -11 -7 -27t-7.5 -25t-3 -18.5t5.5 -14t19 -4.5q52 0 147 68q119 86 201 226t82 311q0 186 -73 339.5t-197.5 253.5t-287.5 154.5t-345 54.5q-181 0 -353.5 -71.5t-305 -194.5t-213.5 -302.5t-81 -381.5q0 -215 71.5 -392t200 -298t310.5 -187.5t399 -66.5 q225 0 433 98t327 265h129q-155 -224 -388.5 -344.5t-522.5 -120.5q-243 0 -448 75t-348 209t-223.5 324.5t-80.5 415.5zM809 455q0 -120 74 -188t190 -68q187 0 305.5 139t118.5 344q0 74 -25.5 127t-68.5 80t-88 39t-94 12q-168 0 -290 -141t-122 -344z" />
<glyph unicode="A" horiz-adv-x="2177" d="M20 0l752 1591h633l752 -1591h-394l-219 481h-913l-219 -481h-392zM733 707h709l-301 661h-105z" />
<glyph unicode="B" horiz-adv-x="1888" d="M184 0v1591h750q408 0 599 -108t191 -336q0 -75 -28.5 -135t-65 -92.5t-83.5 -55.5t-71.5 -30t-41.5 -9q11 -2 27.5 -5.5t50.5 -15t65 -27.5t66.5 -44.5t61.5 -64t43 -88.5t17 -115q0 -231 -193.5 -348t-596.5 -117h-791zM549 225h446q181 0 286 61.5t105 180.5 q0 117 -100 179.5t-272 62.5h-465v-484zM549 926h405q392 0 392 221t-392 221h-405v-442z" />
<glyph unicode="C" horiz-adv-x="2197" d="M123 797q0 178 70 330.5t195.5 261t309.5 170t404 61.5q195 0 352.5 -38.5t253.5 -99.5t167 -135t103 -148t50 -135t20 -100l2 -38l-375 -103q1 7 1.5 19t-1 49.5t-7.5 73.5t-23 85t-42.5 91t-69.5 85t-101.5 73.5t-141.5 49.5t-186 19q-290 0 -446 -156.5t-156 -414.5 q0 -262 165 -417t437 -155q100 0 185.5 16t144.5 43t107 62t77 73.5t50.5 77.5t31 74t14.5 62t6 43v16l375 -96q-1 -8 -4 -22t-18 -56.5t-35.5 -83.5t-60.5 -97t-90 -104.5t-127.5 -97.5t-168.5 -83.5t-217 -56.5t-270 -22q-218 0 -402 62t-310.5 171t-197.5 261.5 t-71 329.5z" />
<glyph unicode="D" horiz-adv-x="2048" d="M184 0v1591h793q272 0 486 -95t338 -277t124 -424q0 -181 -72 -331t-198.5 -251.5t-300.5 -157t-377 -55.5h-793zM549 225h299q345 0 521.5 146.5t176.5 423.5t-176.5 425t-521.5 148h-299v-1143z" />
<glyph unicode="E" horiz-adv-x="1669" d="M184 0v1591h1342v-223h-977v-463h917v-223h-917v-457h1038v-225h-1403z" />
<glyph unicode="F" horiz-adv-x="1564" d="M184 0v1591h1340v-223h-975v-463h917v-223h-917v-682h-365z" />
<glyph unicode="G" horiz-adv-x="2193" d="M123 795q0 179 68.5 331t193 261.5t308 171t403.5 61.5q178 0 325.5 -31.5t241.5 -82t166 -111.5t108.5 -121.5t59 -111t27.5 -82.5l6 -31l-375 -103q0 9 -1.5 24t-13 59t-31 84t-62 88.5t-99 83.5t-149 59t-205.5 24q-147 0 -262 -45t-186 -124.5t-107.5 -181.5 t-36.5 -222q0 -122 41 -226.5t115.5 -181t187 -119.5t248.5 -43q81 0 151 13.5t120.5 36.5t92.5 53t69.5 63t48.5 66t32.5 63t18.5 53t9 37l2 13h-649v223h991v-846h-342v236q-3 -5 -8.5 -14.5t-28.5 -37t-51.5 -52.5t-79 -55t-109 -52t-144 -37t-181.5 -15q-192 0 -361 62 t-290.5 170t-191.5 261t-70 329z" />
<glyph unicode="H" horiz-adv-x="2060" d="M184 0v1591h365v-686h962v686h365v-1591h-365v682h-962v-682h-365z" />
<glyph unicode="I" horiz-adv-x="733" d="M184 0v1591h365v-1591h-365z" />
<glyph unicode="J" horiz-adv-x="1687" d="M41 621l375 96q-3 -51 -3 -98q0 -33 1 -63q4 -75 26.5 -136t62 -104.5t107 -67t160.5 -23.5q108 0 182 26.5t114 77.5t56.5 114t16.5 149v999h364v-970q0 -162 -53.5 -287t-151.5 -203.5t-231 -118t-297 -39.5q-163 0 -295 39.5t-229.5 118t-151 203.5t-53.5 287z" />
<glyph unicode="K" horiz-adv-x="1867" d="M184 0v1591h365v-749l885 749h454l-835 -686l897 -905h-455l-678 711l-268 -224v-487h-365z" />
<glyph unicode="L" horiz-adv-x="1521" d="M184 0v1591h365v-1366h952v-225h-1317z" />
<glyph unicode="M" horiz-adv-x="2686" d="M184 0v1591h629l530 -1243l531 1243h629v-1591h-365v1368l-616 -1368h-357l-616 1368v-1368h-365z" />
<glyph unicode="N" horiz-adv-x="2062" d="M184 0v1591h498l831 -1243v1243h365v-1591h-498l-831 1243v-1243h-365z" />
<glyph unicode="O" horiz-adv-x="2273" d="M123 797q0 178 72.5 330.5t203.5 261t321 170t417 61.5t417 -61.5t320.5 -170t203 -261t72.5 -330.5t-72.5 -330.5t-203 -261.5t-320.5 -170.5t-417 -61.5q-302 0 -533.5 106t-356 293t-124.5 425zM502 797q0 -120 38 -222t113 -181t199 -124t285 -45t285 45t199 124 t113 181t38 222q0 96 -23 180t-73.5 156t-124 124t-179.5 81.5t-235 29.5t-235 -29.5t-179.5 -81.5t-124 -124t-73.5 -156t-23 -180z" />
<glyph unicode="P" horiz-adv-x="1765" d="M184 0v1591h750q405 0 597.5 -112.5t192.5 -341.5t-192.5 -342t-597.5 -113h-385v-682h-365zM549 905h405q183 0 287.5 57t104.5 175t-104 174.5t-288 56.5h-405v-463z" />
<glyph unicode="Q" horiz-adv-x="2314" d="M123 797q0 178 72.5 330.5t203.5 261t321 170t417 61.5t417 -61.5t320.5 -170t203 -261t72.5 -330.5q0 -278 -168.5 -483.5t-463.5 -290.5q-7 -2 -16 -6.5t-19 -17.5t-10 -30q0 -119 180 -119q71 0 130.5 12.5t93 31t57 36.5t32.5 30l8 13l74 -247q-4 -6 -12 -15.5 t-40.5 -34.5t-72.5 -44t-111.5 -34.5t-154.5 -15.5q-90 0 -161 17t-115.5 43.5t-74 62.5t-41 72t-12.5 73q0 107 54 134q-101 -11 -170 -11q-302 0 -533.5 106t-356 293t-124.5 425zM502 797q0 -120 38 -222t113 -181t199 -124t285 -45t285 45t199 124t113 181t38 222 q0 96 -23 180t-73.5 156t-124 124t-179.5 81.5t-235 29.5t-235 -29.5t-179.5 -81.5t-124 -124t-73.5 -156t-23 -180z" />
<glyph unicode="R" horiz-adv-x="1873" d="M184 0v1591h750q405 0 597.5 -112.5t192.5 -341.5q0 -308 -452 -361q212 -26 276 -190q36 -94 92 -236q85 -219 107.5 -272t44.5 -78h-397q-34 48 -119 367q-7 25 -11 39t-10 38t-12 45q-20 74 -68 115t-142.5 59.5t-258.5 18.5h-225v-682h-365zM549 905h405 q183 0 287.5 57t104.5 175t-104 174.5t-288 56.5h-405v-463z" />
<glyph unicode="S" horiz-adv-x="1783" d="M61 518l375 96q-1 -5 -1.5 -13.5t2 -35t8.5 -52.5t21.5 -61t39 -65t64.5 -61t92.5 -52.5t128 -35t167.5 -13.5q182 0 286 50.5t104 140.5q0 22 -3 40t-12 34t-17.5 28.5t-26.5 24t-30.5 19.5t-39.5 17.5t-44 15t-52 14t-55.5 13t-63.5 13.5l-406 86q-229 49 -354 160.5 t-125 263.5q0 75 28 144.5t87.5 130t145 105t207.5 70t267 25.5q124 0 230.5 -16t182 -43t138 -62.5t102 -74t70 -77.5t45.5 -74.5t24 -62.5t11 -43l2 -16l-375 -102q0 7 -0.5 18.5t-8 44.5t-22 63t-47.5 67t-78 63.5t-120 44.5t-168 18q-159 0 -251.5 -52t-92.5 -132 q0 -72 72.5 -116t207.5 -71l438 -88q142 -28 243 -74.5t157.5 -108t82 -130t25.5 -152.5q0 -150 -101 -258t-270 -160.5t-386 -52.5q-196 0 -353.5 35t-256 90.5t-166 129t-96 145t-32.5 145.5z" />
<glyph unicode="T" horiz-adv-x="1806" d="M20 1368v223h1766v-223h-701v-1368h-364v1368h-701z" />
<glyph unicode="U" horiz-adv-x="2031" d="M184 664v927h365v-927q0 -106 21 -183.5t58.5 -126.5t98 -78t129 -40t160.5 -11t160.5 11t129 40t98 78t58.5 126.5t21 183.5v927h364v-927q0 -691 -831 -691q-832 0 -832 691z" />
<glyph unicode="V" horiz-adv-x="2054" d="M20 1591h414l594 -1243l594 1243h412l-813 -1591h-387z" />
<glyph unicode="W" horiz-adv-x="2922" d="M20 1591h414l412 -1245l352 1245h526l353 -1243l411 1243h414l-600 -1591h-434l-408 1368l-405 -1368h-439z" />
<glyph unicode="X" horiz-adv-x="2011" d="M20 0l762 795l-762 796h445l541 -565l540 565h445l-764 -796l764 -795h-445l-540 563l-541 -563h-445z" />
<glyph unicode="Y" horiz-adv-x="2011" d="M20 1591h445l541 -598l540 598h445l-803 -843v-748h-365v748z" />
<glyph unicode="Z" horiz-adv-x="1675" d="M41 0v246l1112 1122h-1112v223h1593v-243l-1112 -1123h1112v-225h-1593z" />
<glyph unicode="[" horiz-adv-x="681" d="M123 -367v2042h518v-102h-416v-1837h416v-103h-518z" />
<glyph unicode="\" horiz-adv-x="501" d="M-80 1460l105 33l557 -1688l-101 -30z" />
<glyph unicode="]" horiz-adv-x="681" d="M41 -264h416v1837h-416v102h518v-2042h-518v103z" />
<glyph unicode="_" horiz-adv-x="1044" d="M41 -123h963v-102h-963v102z" />
<glyph unicode="`" horiz-adv-x="1488" d="M684 1589h430l279 -293h-240z" />
<glyph unicode="a" horiz-adv-x="1583" d="M61 776q2 8 7.5 22t28 54t52.5 76.5t85.5 81.5t122.5 77t168 54t218 22q135 0 243 -34.5t176 -92.5q69 -58 104 -136q32 -71 32 -151v-14l-18 -424v-9q0 -44 18 -72q20 -30 64 -31q26 0 51.5 10.5t43.5 25.5t32 30t21 25l6 11l67 -221l-11.5 -11.5t-33 -26t-55 -32.5 t-76 -25.5t-96.5 -11.5q-89 0 -150 27t-94.5 80.5t-47 120t-13.5 157.5q-10 -17 -16 -28t-36.5 -55.5t-59.5 -77t-79.5 -78t-101.5 -74.5t-120.5 -50.5t-141.5 -21.5q-158 0 -247 71.5t-89 199.5q0 59 27.5 116t91.5 113.5t159.5 102.5t241 81t326.5 50q0 36 -4 64.5 t-18.5 61t-38.5 54.5t-68.5 36.5t-104.5 14.5q-63 0 -115 -14t-83.5 -36t-55 -49t-34.5 -54t-17 -49t-7 -36l-1 -14zM467 313q0 -114 119 -114q67 0 130 33t105.5 79.5t75.5 93.5t49 80l15 33v80q-133 -13 -233.5 -43.5t-154.5 -71.5t-80 -83.5t-26 -86.5z" />
<glyph unicode="b" horiz-adv-x="1648" d="M184 0v1591q74 0 158.5 7.5t131.5 14.5l48 7v-664q4 8 11.5 22t40 50t74 63t116.5 49.5t164 22.5q170 0 306.5 -76t214 -212.5t77.5 -307.5q0 -260 -170 -427t-430 -167q-75 0 -141 16t-112 41t-84.5 55.5t-61.5 61.5t-39 56t-22 41l-7 16l-78 -260h-197zM469 567 q0 -73 20 -137t60.5 -117t109 -83.5t158.5 -30.5q175 0 264.5 102t89.5 266q0 165 -89.5 268t-264.5 103q-90 0 -158.5 -31t-109 -84.5t-60.5 -118t-20 -137.5z" />
<glyph unicode="c" horiz-adv-x="1591" d="M123 569q0 126 48.5 235t137 188.5t219 125t287.5 45.5q110 0 201.5 -18.5t154 -49.5t112 -71.5t78 -85.5t48.5 -90t27 -85.5t10.5 -71.5t2.5 -49l-1 -19l-328 -84q1 8 2.5 22.5t0.5 56t-7.5 79t-26.5 83.5t-51.5 79.5t-88 56t-130.5 22.5q-169 0 -256.5 -103.5 t-87.5 -265.5q0 -170 97.5 -270t275.5 -100q63 0 114.5 14.5t83 37.5t55 51t34.5 56t17.5 51t7.5 37l1 15l328 -84q-2 -8 -6.5 -23t-25 -56.5t-49 -80t-83 -85t-121 -80t-169 -56.5t-222.5 -23q-111 0 -213 24.5t-188.5 74.5t-151 120.5t-101 167t-36.5 209.5z" />
<glyph unicode="d" horiz-adv-x="1648" d="M123 567q0 260 169 428t429 168q89 0 163 -21.5t116.5 -51.5t72 -60.5t40.5 -51.5l11 -22v635q76 0 161 7.5t132 14.5l47 7v-1620h-196l-80 260q-2 -6 -6.5 -16.5t-22 -40t-39 -57t-60.5 -60.5t-84.5 -56.5t-111.5 -40t-141 -16.5q-262 0 -431 167t-169 427zM477 567 q0 -164 89 -266t263 -102q90 0 159 30.5t110 83t61.5 117t20.5 137.5t-20.5 137.5t-61.5 118t-110 84.5t-159 31q-174 0 -263 -103.5t-89 -267.5z" />
<glyph unicode="e" horiz-adv-x="1611" d="M123 569q0 126 48.5 235t137 188.5t218.5 125t286 45.5q132 0 238.5 -27t175.5 -70.5t118.5 -102t74.5 -117.5q24 -60 36 -122q11 -58 10 -102v-8q-1 -48 -8 -86l-995 21q1 -69 23 -129.5t66 -111t120 -80t176 -29.5q63 0 115 14.5t83.5 37.5t55 51t34.5 56t17 51t7 37 l1 15l328 -84q-2 -8 -6.5 -23t-25 -56.5t-48.5 -80t-82.5 -85t-121.5 -80t-169.5 -56.5t-222.5 -23q-111 0 -213 24.5t-188.5 74.5t-151 120.5t-101 167t-36.5 209.5zM483 709l625 20q-1 9 -4.5 23.5t-23.5 52.5t-49.5 67t-88.5 52.5t-135 23.5q-79 0 -141.5 -24.5 t-95.5 -60t-54 -70.5t-27 -59z" />
<glyph unicode="f" horiz-adv-x="1155" d="M0 938v199h305q-4 2 -10 6t-19.5 17t-24 28.5t-18.5 41.5t-8 56q0 61 35.5 119t102.5 107t175.5 78.5t241.5 29.5q92 0 174 -13t143 -35.5t114 -51.5t89.5 -61.5t65.5 -64.5t46.5 -61t29 -51.5t16.5 -35.5l4 -13l-352 -90q0 5 -1 14.5t-7 37t-17 52t-34.5 55t-55 52 t-83.5 36.5t-115 15q-74 0 -126.5 -18.5t-77.5 -49t-35.5 -60t-10.5 -60.5q0 -23 8.5 -43t16.5 -28l8 -9h434v-199h-414v-938h-338v938h-262z" />
<glyph unicode="g" horiz-adv-x="1585" d="M61 -227q0 32 11.5 61t28 49.5t44.5 39t50.5 30.5t57 22.5t53 15.5t49.5 10.5t35.5 6t21.5 2.5q-15 1 -41 5.5t-70.5 19.5t-81.5 36t-64.5 59t-27.5 85q0 34 15.5 62t42.5 47.5t56.5 33.5t65 23.5t59 14t48.5 7.5q-141 52 -217 143.5t-76 207.5q0 178 173 293.5 t470 115.5q291 0 467 -114q-49 73 -49 114q0 76 47.5 119t130.5 43q37 0 147 -8l78 -252q-107 16 -176 16q-56 0 -79.5 -16.5t-20 -43t25.5 -67.5q72 -90 72 -200q0 -176 -173 -291t-466 -115q-116 0 -199 14h-13q-99 0 -99 -75q0 -48 50.5 -68t156.5 -20h419 q108 0 192 -20.5t135 -53t83.5 -78.5t44.5 -92t12 -98q0 -159 -152.5 -250.5t-416.5 -91.5h-453q-128 0 -223 23.5t-146 63t-74.5 82t-23.5 89.5zM418 -168q0 -86 83 -121t294 -35q101 0 167.5 6t122.5 22.5t82.5 48.5t26.5 81q0 65 -40.5 100t-137.5 41l-400 25 q-10 0 -24 -1t-48 -10t-59.5 -25t-46 -50.5t-20.5 -81.5zM463 754q0 -95 71.5 -151t229.5 -56q297 0 297 207q0 211 -297 211q-301 0 -301 -211z" />
<glyph unicode="h" horiz-adv-x="1669" d="M184 0v1591q83 0 167.5 7.5t127.5 14.5l43 7v-762q2 10 6 25.5t17.5 46.5t32.5 60t54.5 61.5t79.5 56t110.5 39.5t144.5 16q258 0 388 -122.5t130 -344.5v-696h-336v713q0 110 -75 167.5t-200 57.5q-60 0 -111.5 -14t-86.5 -36t-63.5 -48.5t-44.5 -53t-27 -48.5t-15 -36 l-4 -14v-688h-338z" />
<glyph unicode="i" horiz-adv-x="706" d="M184 0v1137h338v-1137h-338zM184 1331v260h338v-260h-338z" />
<glyph unicode="j" horiz-adv-x="706" d="M-279 -315l66 219q2 -7 7 -18t23 -39t40 -50t60.5 -39.5t82.5 -17.5q93 0 138.5 61t45.5 209v1127h338v-1110q0 -243 -125.5 -377.5t-320.5 -134.5q-69 0 -131 17.5t-101 42.5t-68.5 50t-41.5 43zM184 1300v261h338v-261h-338z" />
<glyph unicode="k" horiz-adv-x="1449" d="M184 0v1591q83 0 167.5 7.5t127.5 15.5l43 8v-985l498 500h410l-562 -527l643 -610h-411l-424 430l-154 -147v-283h-338z" />
<glyph unicode="l" horiz-adv-x="706" d="M184 0v1591q74 0 158.5 7.5t131.5 14.5l48 7v-1620h-338z" />
<glyph unicode="m" horiz-adv-x="2463" d="M184 0v1137h197l96 -322q1 7 3 19.5t13.5 49t29.5 69t54.5 73t83.5 69t122 48.5t165 20q82 0 148 -19t107.5 -47t72.5 -66.5t45.5 -71.5t23 -68.5t10 -50.5t1.5 -23q2 13 5 29t16.5 52.5t33 68t56.5 69.5t83.5 64.5t118.5 44.5t158 18q218 0 335 -117.5t117 -349.5v-696 h-337v702q0 38 -4 67t-17.5 62.5t-37 55.5t-66 36.5t-101.5 14.5q-69 0 -126.5 -26t-91 -62.5t-57 -73t-31.5 -62.5l-9 -26v-688h-338v702q0 38 -3.5 67t-17.5 62.5t-37 55.5t-66 36.5t-101 14.5q-50 0 -94.5 -14t-76 -36t-57 -48.5t-41.5 -53t-27 -48.5t-16 -36l-4 -14 v-688h-338z" />
<glyph unicode="n" horiz-adv-x="1669" d="M184 0v1137h197l96 -322q1 7 2.5 19.5t13 49t29 69t54.5 73t84.5 69t123.5 48.5t168 20q533 0 533 -467v-696h-338v713q0 112 -74 168.5t-213 56.5q-75 0 -137.5 -26t-98 -62.5t-60 -73t-33.5 -62.5l-9 -26v-688h-338z" />
<glyph unicode="o" horiz-adv-x="1654" d="M123 569q0 125 48.5 233t137 188.5t222 126.5t294.5 46q163 0 297.5 -46t223.5 -126.5t137.5 -188.5t48.5 -233t-48.5 -234t-137.5 -189.5t-223.5 -126.5t-297.5 -46q-161 0 -294.5 46t-222 126.5t-137 189.5t-48.5 234zM477 569q0 -74 18 -137t56.5 -117t108.5 -85 t165 -31q94 0 165 31t110.5 85t58.5 117.5t19 136.5t-19 136.5t-58.5 117t-110.5 84.5t-165 31q-95 0 -165 -31t-108.5 -84.5t-56.5 -116.5t-18 -137z" />
<glyph unicode="p" horiz-adv-x="1648" d="M184 -457v1594h197l78 -260q2 6 6.5 16.5t22 40t39.5 56.5t61 60t84.5 56.5t112 40t141.5 16.5q260 0 430 -167t170 -427q0 -171 -77.5 -307.5t-214 -212.5t-306.5 -76q-65 0 -122 11.5t-97 30t-73.5 40.5t-54 44.5t-34.5 41t-19 29.5l-6 12v-639h-338zM469 569 q0 -73 20 -137.5t60.5 -117.5t109 -84t158.5 -31q175 0 264.5 103t89.5 267t-89.5 266.5t-264.5 102.5q-90 0 -158.5 -31t-109 -83.5t-60.5 -117t-20 -137.5z" />
<glyph unicode="q" horiz-adv-x="1648" d="M123 569q0 260 169 427t431 167q75 0 141 -16t112 -41t84 -55.5t61 -61t39 -55.5t22 -41l6 -16l80 260h196v-1594h-340v637q-4 -8 -11.5 -22t-39.5 -50t-73 -63t-115.5 -49.5t-163.5 -22.5q-260 0 -429 168t-169 428zM477 569q0 -164 89 -267t263 -103q90 0 159 31 t110 84t61.5 117.5t20.5 137.5t-20.5 137.5t-61.5 117t-110 83.5t-159 31q-174 0 -263 -102.5t-89 -266.5z" />
<glyph unicode="r" horiz-adv-x="1169" d="M184 0v1137h197l96 -322q0 7 0.5 19.5t6.5 49t17 69t35.5 73t57.5 69t87.5 48.5t121.5 20q305 0 305 -297q0 -63 -7 -117t-13 -77l-7 -23l-327 -84q34 115 34 271q0 57 -26.5 79.5t-63.5 22.5q-40 0 -73 -25.5t-51 -62t-30.5 -73t-17.5 -61.5l-4 -26v-690h-338z" />
<glyph unicode="s" horiz-adv-x="1433" d="M82 371l328 84q0 -5 0.5 -14.5t7.5 -36t19 -50.5t39 -53.5t63 -51t95 -36t132 -14.5q108 0 180 30.5t72 87.5q0 51 -53.5 81.5t-176.5 52.5l-266 49q-61 11 -110 25t-102 38.5t-88.5 56.5t-59 80.5t-23.5 108.5q0 109 72.5 190.5t193 122.5t271.5 41q91 0 170 -11.5 t136 -30.5t105 -44t79 -52.5t54.5 -55t36.5 -52.5t21 -44t10 -31l2 -11l-327 -83q0 4 -1 11.5t-8 28t-18 39.5t-34 42t-53 39.5t-79 28t-108 11.5q-100 0 -154.5 -36t-54.5 -83q0 -20 11 -35.5t26.5 -25.5t47 -19t58 -14.5t74.5 -13.5l286 -47q396 -65 396 -346 q0 -112 -80 -193.5t-211.5 -121.5t-298.5 -40q-105 0 -195 13.5t-154 36.5t-117 53t-86.5 63t-58.5 66t-38 63t-20.5 53t-8.5 37z" />
<glyph unicode="t" horiz-adv-x="1173" d="M0 938v199h270v223l326 205v-428h522v-199h-522v-516q0 -223 201 -223q37 0 71.5 9t61 23.5t49.5 31.5t38.5 34.5t27 32t17.5 23.5l5 9l66 -221q-6 -7 -16.5 -18t-49.5 -40t-84.5 -51.5t-120.5 -40.5t-157 -18q-212 0 -327.5 105t-115.5 319v541h-262z" />
<glyph unicode="u" horiz-adv-x="1669" d="M184 440v697h336v-713q0 -112 75 -168.5t214 -56.5q55 0 103 14t81.5 36t61 48.5t44 53t28 48.5t15.5 36l5 14v688h338v-1137h-197l-96 322q-1 -7 -2.5 -19.5t-13 -49t-29 -69.5t-54.5 -73t-84.5 -69t-123.5 -49t-168 -20q-533 0 -533 467z" />
<glyph unicode="v" horiz-adv-x="1531" d="M20 1137h371l375 -838l375 838h370l-581 -1137h-328z" />
<glyph unicode="w" horiz-adv-x="2246" d="M20 1137h371l291 -838l279 838h325l279 -838l290 838h371l-483 -1137h-334l-287 821l-284 -821h-334z" />
<glyph unicode="x" horiz-adv-x="1552" d="M20 0l560 567l-560 570h392l364 -371l365 371h391l-561 -570l561 -567h-391l-365 369l-364 -369h-392z" />
<glyph unicode="y" horiz-adv-x="1511" d="M20 1137h371l354 -818l375 818h371l-666 -1264q-102 -195 -210 -276.5t-267 -81.5q-61 0 -116 17.5t-90.5 42.5t-62 50t-38.5 43l-12 17l65 219q2 -7 6.5 -18t23 -39t41 -50t63 -39.5t87.5 -17.5q45 0 84.5 23t73.5 68t59 89.5t56 110.5z" />
<glyph unicode="z" horiz-adv-x="1443" d="M123 0v219l784 719h-784v199h1198v-219l-772 -719h772v-199h-1198z" />
<glyph unicode="{" horiz-adv-x="626" d="M61 598v184q35 1 66.5 9t62.5 26.5t45.5 56t6.5 89.5l-43 278q-12 76 1.5 137.5t47 103t85 70t111.5 42.5t131 18l11 -84q-72 -7 -122.5 -24.5t-89 -51.5t-53 -91t-4.5 -138l33 -271q8 -63 -6 -113.5t-44 -80.5t-63.5 -46.5t-70.5 -21.5q37 -5 70.5 -21.5t63.5 -46.5 t44 -80.5t6 -113.5l-33 -270q-10 -81 4.5 -138t53 -91t89 -51.5t122.5 -24.5l-11 -82q-72 4 -131.5 17.5t-111.5 42t-85 69t-46.5 102t-1.5 137.5l43 279q8 52 -6.5 89.5t-45.5 55.5t-62.5 26t-66.5 9z" />
<glyph unicode="|" horiz-adv-x="348" d="M123 -225v1718h102v-1718h-102z" />
<glyph unicode="}" horiz-adv-x="626" d="M41 -147q72 7 122.5 24.5t88.5 51.5t52.5 91t4.5 138l-33 270q-8 63 6 113.5t44.5 80.5t64 46.5t70.5 21.5q-37 5 -70.5 21.5t-64 46.5t-44.5 80.5t-6 113.5l33 271q10 81 -4.5 138t-52.5 91t-88.5 51.5t-122.5 24.5l10 84q71 -4 131 -18t112 -42.5t85.5 -70t47 -103 t1.5 -137.5l-43 -278q-8 -52 6.5 -89.5t45 -56t62 -26.5t66.5 -9v-184q-35 -1 -66.5 -9t-62 -26t-45 -55.5t-6.5 -89.5l43 -279q12 -76 -2 -137.5t-47 -102t-85 -69t-111.5 -42t-131.5 -17.5z" />
<glyph unicode="&#xa1;" horiz-adv-x="733" d="M184 184v308h365v-308h-365zM184 -1100l62 1100h241l62 -1100h-365z" />
<glyph unicode="&#xa2;" d="M217 569q0 249 177 414.5t474 177.5v430h88v-430q102 -4 187 -25t143 -53t104 -72.5t72 -84t44.5 -87t25 -82.5t9.5 -69t2 -48l-1 -17l-328 -84q1 8 2.5 21t1 51.5t-6 74.5t-23 80.5t-44.5 78t-75.5 59.5t-112.5 32v-737q60 2 109 17t79.5 38.5t53 51t33 55t16.5 50 t7 36.5l1 14l328 -84q-2 -8 -6 -22t-23.5 -54t-46 -76.5t-77 -82t-112.5 -79.5t-156.5 -59t-205.5 -29v-432h-88v432q-133 5 -249.5 47t-207 115t-142.5 184.5t-52 247.5zM569 569q0 -152 77 -248t222 -118v733q-147 -14 -223 -116t-76 -251z" />
<glyph unicode="&#xa3;" d="M-23 254q0 126 84.5 202t237.5 76q67 0 134 -23t101 -46l33 -23q-12 107 -194 242q-11 6 -25 16h-348v103h219q-137 130 -137 301q0 78 26 150.5t85 139.5t145.5 117t216 79.5t287.5 29.5q155 0 279 -32t199.5 -83t130 -112.5t78.5 -123t37.5 -112.5t13.5 -83l1 -32 l-379 -104q0 6 0.5 15.5t-2 39t-7.5 58t-17.5 67.5t-30.5 72.5t-49 67.5t-70.5 58t-97 39t-125.5 15q-162 0 -253 -66.5t-91 -171.5q0 -42 14 -80.5t44.5 -75t54 -59.5t65.5 -59l65 -55h465v-103h-368q78 -109 78 -241q0 -102 -35 -183q76 -49 174 -49q58 0 106.5 17.5 t81 47t59 68t41.5 81t25.5 85t14 81t5.5 68t1 47.5v17l379 -98q0 -8 -1.5 -23t-10 -60.5t-21 -89.5t-38 -104t-58.5 -111.5t-86 -104t-116.5 -89.5t-152.5 -60.5t-192 -23.5q-48 0 -103.5 11t-100.5 26.5t-83.5 31.5t-59.5 27l-22 11q-123 -107 -336 -107q-173 0 -272 78 t-99 203zM209 258q0 -36 33.5 -64t93.5 -28q29 0 54 7.5t41 18.5t28 22t17 18l5 8q-43 42 -61 58t-52 33t-69 17q-46 0 -68 -26.5t-22 -63.5z" />
<glyph unicode="&#xa5;" d="M0 1591h444l457 -598l457 598h444l-719 -843v-68h402v-102h-402v-226h402v-102h-402v-250h-364v250h-402v102h402v226h-402v102h402v68z" />
<glyph unicode="&#xa6;" horiz-adv-x="348" d="M123 -225v686h102v-686h-102zM123 807v686h102v-686h-102z" />
<glyph unicode="&#xa7;" horiz-adv-x="1458" d="M53 -8l369 98q-1 -6 -1.5 -17t3.5 -42t14 -59.5t36 -63.5t64 -60t103.5 -42t149.5 -17q100 0 154 36.5t54 102.5q0 46 -37.5 82.5t-142.5 81.5l-303 131q-194 83 -291.5 168.5t-97.5 192.5q0 103 83 181t222 103q-93 43 -151 76t-113 78.5t-81 99t-26 119.5q0 113 77 200 t206.5 133t288.5 46q106 0 199 -15.5t161 -42t125 -60.5t94.5 -72t67 -75.5t45.5 -71.5t26.5 -60.5t13.5 -42.5l3 -15l-369 -98q1 6 1.5 17t-3 42t-13.5 59.5t-35.5 63.5t-64 60t-104 42t-149.5 17q-98 0 -153.5 -37.5t-55.5 -99.5q0 -44 42 -83.5t142 -82.5l314 -137 q99 -44 169 -85.5t109.5 -75.5t61.5 -72t28 -66.5t6 -65.5q0 -95 -81.5 -170.5t-219.5 -101.5q182 -72 274.5 -160t92.5 -215q0 -113 -77 -199.5t-206.5 -132t-288.5 -45.5q-135 0 -248.5 25t-187 65t-131 88t-88 96.5t-50 88.5t-25.5 65zM485 592q0 -55 71 -93t196 -38 q80 0 135 30.5t55 75.5q0 62 -79.5 95.5t-192.5 33.5q-80 0 -132.5 -29t-52.5 -75z" />
<glyph unicode="&#xa8;" horiz-adv-x="733" d="M-20 1284v307h282v-307h-282zM471 1284v307h283v-307h-283z" />
<glyph unicode="&#xa9;" horiz-adv-x="2179" d="M123 637q0 200 75.5 379.5t204 308t308 204t379.5 75.5t379.5 -75.5t308 -204t203.5 -308t75 -379.5t-75 -379.5t-203.5 -308t-308 -204t-379.5 -75.5t-379.5 75.5t-308 204t-204 308t-75.5 379.5zM238 635q0 -174 67 -332t181 -272t272 -181t332 -67t332 67t272 181 t181 272t67 332t-67 332t-181 272t-272 181t-332 67t-332 -67t-272 -181t-181 -272t-67 -332zM434 637q0 131 43 241.5t123.5 192t203 127t273.5 45.5q123 0 224.5 -25t165.5 -64.5t112.5 -87.5t72 -96t38 -87.5t17.5 -64.5l3 -25l-291 -86q0 6 -0.5 16.5t-6.5 41t-17 58 t-36.5 61t-60.5 58t-92.5 41t-128.5 16.5q-166 0 -258 -101t-92 -261q0 -159 98 -262t265 -103q72 0 129.5 16t92 42t59.5 57t36 62.5t17 57.5t6 42v16l290 -82q-1 -9 -4 -25.5t-19.5 -63.5t-41.5 -90t-74 -95.5t-112 -90t-162 -63.5t-217 -26q-300 0 -478 171t-178 437z " />
<glyph unicode="&#xab;" horiz-adv-x="1411" d="M61 567l412 449h262l-309 -449l309 -448h-262zM676 567l411 449h263l-310 -449l310 -448h-263z" />
<glyph unicode="&#xad;" horiz-adv-x="1028" d="M82 508v199h864v-199h-864z" />
<glyph unicode="&#xae;" horiz-adv-x="2179" d="M123 637q0 200 75.5 379.5t204 308t308 204t379.5 75.5t379.5 -75.5t308 -204t203.5 -308t75 -379.5t-75 -379.5t-203.5 -308t-308 -204t-379.5 -75.5t-379.5 75.5t-308 204t-204 308t-75.5 379.5zM238 635q0 -174 67 -332t181 -272t272 -181t332 -67t332 67t272 181 t181 272t67 332t-67 332t-181 272t-272 181t-332 67t-332 -67t-272 -181t-181 -272t-67 -332zM598 53v1166h498q267 0 394.5 -82.5t127.5 -249.5q0 -106 -66.5 -175.5t-189.5 -86.5q68 -7 114 -54.5t62 -115.5q54 -212 77.5 -282t59.5 -120h-307q-22 29 -37 80t-53 215 l-16 64q-15 53 -36.5 77.5t-74.5 37t-158 12.5h-112v-486h-283zM881 758h215q123 0 176 24.5t53 94.5t-53 94t-176 24h-215v-237z" />
<glyph unicode="&#xb0;" horiz-adv-x="712" d="M82 1223q0 112 80.5 191t191.5 79q113 0 195 -79t82 -191q0 -110 -82 -188.5t-195 -78.5q-111 0 -191.5 78.5t-80.5 188.5zM197 1223q0 -71 44.5 -116.5t112.5 -45.5q70 0 116 45.5t46 116.5q0 73 -46 119.5t-116 46.5q-68 0 -112.5 -46.5t-44.5 -119.5z" />
<glyph unicode="&#xb1;" horiz-adv-x="1331" d="M41 0v102h1249v-102h-1249zM41 750v102h573v573h103v-573h573v-102h-573v-574h-103v574h-573z" />
<glyph unicode="&#xb4;" horiz-adv-x="1488" d="M971 1296l278 295h430l-469 -295h-239z" />
<glyph unicode="&#xb5;" horiz-adv-x="1669" d="M184 -457v1594h336l2 -643q0 -144 85 -219.5t222 -75.5q42 0 85.5 11.5t85.5 36t74.5 58t52.5 81.5t20 103v648h338v-1137h-197l-96 322q-1 -7 -4.5 -19.5t-17.5 -49t-32.5 -69.5t-54 -73t-78 -69t-107.5 -49t-140 -20t-140.5 18t-95.5 50v-498h-338z" />
<glyph unicode="&#xb6;" horiz-adv-x="1712" d="M41 1137q0 98 29.5 175.5t80.5 129t124 85.5t156.5 49t180.5 15h916v-2048h-338v1825h-240v-1825h-338v1149q-165 0 -292 48t-203 150t-76 247z" />
<glyph unicode="&#xb7;" horiz-adv-x="1116" d="M147 573q0 171 120.5 291.5t289.5 120.5q171 0 291.5 -120.5t120.5 -291.5q0 -167 -121 -287t-291 -120q-169 0 -289.5 120t-120.5 287z" />
<glyph unicode="&#xb8;" horiz-adv-x="1705" d="M479 -389l37 139q1 -3 9 -12.5t25 -24t39 -27.5t55 -22.5t69 -9.5q63 0 100 24.5t37 67.5q0 37 -24 59.5t-62 22.5q-15 0 -28.5 -4.5t-22.5 -11t-16 -13.5t-10 -11l-3 -5l-106 20l86 242h118l-57 -158q43 35 111 35q80 0 129 -47.5t49 -128.5q0 -73 -42 -127t-104.5 -79 t-134.5 -25q-48 0 -92 10t-72 24t-49.5 28t-31.5 24z" />
<glyph unicode="&#xbb;" horiz-adv-x="1411" d="M61 119l310 448l-310 449h263l411 -449l-411 -448h-263zM676 119l309 448l-309 449h262l412 -449l-412 -448h-262z" />
<glyph unicode="&#xbc;" horiz-adv-x="1593" d="M0 799v86h307l-2 622q0 -61 -12 -99.5t-45.5 -66.5t-93 -39.5t-154.5 -11.5v101q159 0 233 44.5t74 157.5h133v-708h215v-86h-655zM350 41l842 1565l98 -50l-846 -1562zM825 193v126l432 476h177v-516h159v-86h-159v-193h-134v193h-475zM928 279h372v419z" />
<glyph unicode="&#xbd;" horiz-adv-x="1593" d="M0 799v86h307l-2 622q0 -61 -12 -99.5t-45.5 -66.5t-93 -39.5t-154.5 -11.5v101q159 0 233 44.5t74 157.5h133v-708h215v-86h-655zM350 41l842 1565l98 -50l-846 -1562zM938 0v76q10 4 28 12.5t70 35t99.5 55t105 72.5t99 87.5t70 98.5t28.5 108q0 71 -46.5 117.5 t-136.5 46.5q-88 0 -132 -46t-44 -116q0 -35 13.5 -67.5t32.5 -53t32 -31.5t19 -14l-136 -41q-4 3 -10.5 9t-23.5 26.5t-30 43t-23.5 58.5t-10.5 74q0 102 83 180t232 78q154 0 237 -72.5t83 -187.5q0 -59 -25.5 -115.5t-59.5 -97t-89.5 -84t-93.5 -67.5t-94.5 -57 t-71.5 -42h450v-86h-655z" />
<glyph unicode="&#xbe;" horiz-adv-x="1593" d="M0 1071l137 41q2 -1 0 -12t2.5 -30.5t10 -42t23 -46t40.5 -42t62.5 -30.5t89.5 -12q94 0 147 36.5t53 104.5q0 138 -221 138h-51v86h51q92 0 146.5 35t54.5 96q0 56 -47 91.5t-123 35.5q-59 0 -101 -19.5t-60 -47t-27 -55.5t-9 -48v-19l-137 41q1 5 2.5 14t11 35t23 49 t40 52t60.5 49.5t87 34.5t116 14q136 0 220.5 -60t84.5 -149q0 -44 -18 -77t-42 -50.5t-56 -28.5t-51.5 -14t-37.5 -4q13 -1 23.5 -2t35.5 -6t44.5 -12.5t43.5 -23t40.5 -35.5t27.5 -51.5t11 -70.5q0 -118 -96.5 -178.5t-241.5 -60.5q-73 0 -133 15t-97 39.5t-65 53.5 t-41.5 58t-21.5 53.5t-9 39.5zM350 41l842 1565l98 -50l-846 -1562zM825 193v126l432 476h177v-516h159v-86h-159v-193h-134v193h-475zM928 279h372v419z" />
<glyph unicode="&#xbf;" horiz-adv-x="1622" d="M41 -659l375 102q0 -7 0.5 -18.5t8.5 -44.5t23 -63.5t48 -67t78.5 -63.5t120 -45t167.5 -18q157 0 249.5 63.5t92.5 168.5q0 58 -29 107.5t-75 84t-103.5 68.5t-115 61t-109.5 61.5t-86.5 69t-46 85t11.5 108.5h242q0 -51 38 -93t98.5 -72.5t134 -61t147 -69t134 -85.5 t98.5 -121t38 -166q0 -94 -51.5 -177.5t-144 -146.5t-231.5 -99.5t-304 -36.5q-157 0 -286.5 26t-211 67t-143.5 91t-92.5 100.5t-49 91.5t-22.5 67zM590 184v308h364v-308h-364z" />
<glyph unicode="&#xc0;" horiz-adv-x="2177" d="M20 0l752 1591h633l752 -1591h-394l-219 481h-913l-219 -481h-392zM569 2085h430l279 -293h-240zM733 707h709l-301 661h-105z" />
<glyph unicode="&#xc1;" horiz-adv-x="2177" d="M20 0l752 1591h633l752 -1591h-394l-219 481h-913l-219 -481h-392zM733 707h709l-301 661h-105zM856 1792l279 295h430l-469 -295h-240z" />
<glyph unicode="&#xc2;" horiz-adv-x="2177" d="M20 0l752 1591h633l752 -1591h-394l-219 481h-913l-219 -481h-392zM582 1792l381 295h307l381 -295h-199l-336 127l-336 -127h-198zM733 707h709l-301 661h-105z" />
<glyph unicode="&#xc3;" horiz-adv-x="2177" d="M20 0l752 1591h633l752 -1591h-394l-219 481h-913l-219 -481h-392zM702 1894q2 9 6.5 24t23 53.5t42.5 67.5t68.5 53t97.5 24q48 0 90.5 -14t74 -34t61 -40t65 -34t72.5 -14q34 0 62 14t43.5 34t26 40t13.5 34l4 14l82 -115q-2 -9 -6.5 -24t-23 -53t-42.5 -67t-68.5 -53 t-97.5 -24q-49 0 -91.5 14t-73 34t-60 39.5t-65 33.5t-74.5 14q-33 0 -60.5 -14t-43 -33.5t-26.5 -39.5t-14 -34l-4 -14zM733 707h709l-301 661h-105z" />
<glyph unicode="&#xc4;" horiz-adv-x="2177" d="M20 0l752 1591h633l752 -1591h-394l-219 481h-913l-219 -481h-392zM729 1780v307h283v-307h-283zM733 707h709l-301 661h-105zM1221 1780v307h282v-307h-282z" />
<glyph unicode="&#xc5;" horiz-adv-x="2177" d="M20 0l752 1591h633l752 -1591h-394l-219 481h-913l-219 -481h-392zM733 707h709l-301 661h-105zM872 1989q0 94 69.5 160.5t174.5 66.5q111 0 179.5 -64t68.5 -163q0 -92 -71 -158t-177 -66q-104 0 -174 66t-70 158zM1028 1991q0 -41 26.5 -65.5t63.5 -24.5q36 0 63 25.5 t27 64.5q0 38 -27 64t-63 26q-37 0 -63.5 -24.5t-26.5 -65.5z" />
<glyph unicode="&#xc6;" horiz-adv-x="2891" d="M20 0l752 1591h1976v-223h-976v-463h917v-223h-917v-457h1038v-225h-1403v682h-684l-311 -682h-392zM825 905h582v463h-371z" />
<glyph unicode="&#xc7;" horiz-adv-x="2197" d="M123 797q0 178 70 330.5t195.5 261t309.5 170t404 61.5q195 0 352.5 -38.5t253.5 -99.5t167 -135t103 -148t50 -135t20 -100l2 -38l-375 -103q1 7 1.5 19t-1 49.5t-7.5 73.5t-23 85t-42.5 91t-69.5 85t-101.5 73.5t-141.5 49.5t-186 19q-290 0 -446 -156.5t-156 -414.5 q0 -262 165 -417t437 -155q100 0 185.5 16t144.5 43t107 62t77 73.5t50.5 77.5t31 74t14.5 62t6 43v16l375 -96q-1 -8 -4 -22t-18 -56t-35.5 -83.5t-60.5 -97.5t-90 -104t-126.5 -97t-167.5 -84t-216.5 -57t-268.5 -22l-31 -86q43 35 111 35q80 0 129 -47.5t49 -128.5 q0 -73 -42 -127t-104.5 -79t-134.5 -25q-48 0 -92 10t-72 24t-49.5 28t-31.5 24l-9 10l37 139q1 -3 9 -12.5t25 -24t39 -27.5t55 -22.5t69 -9.5q63 0 100 24.5t37 67.5q0 37 -24 59.5t-62 22.5q-15 0 -28.5 -4.5t-22.5 -11t-16 -13.5t-10 -11l-3 -5l-106 20l61 177 q-195 14 -357.5 81.5t-274.5 174.5t-174 251t-62 310z" />
<glyph unicode="&#xc8;" horiz-adv-x="1669" d="M184 0v1591h1342v-223h-977v-463h917v-223h-917v-457h1038v-225h-1403zM436 2085h430l279 -293h-240z" />
<glyph unicode="&#xc9;" horiz-adv-x="1669" d="M184 0v1591h1342v-223h-977v-463h917v-223h-917v-457h1038v-225h-1403zM662 1792l278 295h430l-469 -295h-239z" />
<glyph unicode="&#xca;" horiz-adv-x="1669" d="M184 0v1591h1342v-223h-977v-463h917v-223h-917v-457h1038v-225h-1403zM346 1792l381 295h307l381 -295h-198l-336 127l-336 -127h-199z" />
<glyph unicode="&#xcb;" horiz-adv-x="1669" d="M184 0v1591h1342v-223h-977v-463h917v-223h-917v-457h1038v-225h-1403zM514 1780v307h283v-307h-283zM1006 1780v307h282v-307h-282z" />
<glyph unicode="&#xcc;" horiz-adv-x="733" d="M-139 2085h430l278 -293h-239zM184 0v1591h365v-1591h-365z" />
<glyph unicode="&#xcd;" horiz-adv-x="733" d="M164 1792l278 295h430l-469 -295h-239zM184 0v1591h365v-1591h-365z" />
<glyph unicode="&#xce;" horiz-adv-x="733" d="M-168 1792l381 295h307l381 -295h-199l-335 127l-336 -127h-199zM184 0v1591h365v-1591h-365z" />
<glyph unicode="&#xcf;" horiz-adv-x="733" d="M-20 1780v307h282v-307h-282zM184 0v1591h365v-1591h-365zM471 1780v307h283v-307h-283z" />
<glyph unicode="&#xd1;" horiz-adv-x="2062" d="M184 0v1591h498l831 -1243v1243h365v-1591h-498l-831 1243v-1243h-365zM616 1880q2 9 6.5 24t23 53t42.5 67t68.5 53t97.5 24q58 0 110.5 -21t85 -46.5t77.5 -46.5t90 -21q34 0 62 14t43.5 34t26 39.5t13.5 33.5l4 14l82 -114q-2 -9 -6.5 -24t-23 -53.5t-42.5 -67.5 t-68.5 -53t-97.5 -24q-60 0 -112 21.5t-83.5 46.5t-76.5 46.5t-92 21.5q-33 0 -60.5 -14t-43 -34t-26.5 -40t-14 -34l-4 -14z" />
<glyph unicode="&#xd2;" horiz-adv-x="2273" d="M123 797q0 178 72.5 330.5t203.5 261t321 170t417 61.5t417 -61.5t320.5 -170t203 -261t72.5 -330.5t-72.5 -330.5t-203 -261.5t-320.5 -170.5t-417 -61.5q-302 0 -533.5 106t-356 293t-124.5 425zM502 797q0 -120 38 -222t113 -181t199 -124t285 -45t285 45t199 124 t113 181t38 222q0 96 -23 180t-73.5 156t-124 124t-179.5 81.5t-235 29.5t-235 -29.5t-179.5 -81.5t-124 -124t-73.5 -156t-23 -180zM618 2085h431l278 -293h-240z" />
<glyph unicode="&#xd3;" horiz-adv-x="2273" d="M123 797q0 178 72.5 330.5t203.5 261t321 170t417 61.5t417 -61.5t320.5 -170t203 -261t72.5 -330.5t-72.5 -330.5t-203 -261.5t-320.5 -170.5t-417 -61.5q-302 0 -533.5 106t-356 293t-124.5 425zM502 797q0 -120 38 -222t113 -181t199 -124t285 -45t285 45t199 124 t113 181t38 222q0 96 -23 180t-73.5 156t-124 124t-179.5 81.5t-235 29.5t-235 -29.5t-179.5 -81.5t-124 -124t-73.5 -156t-23 -180zM905 1792l279 295h430l-469 -295h-240z" />
<glyph unicode="&#xd4;" horiz-adv-x="2273" d="M123 797q0 178 72.5 330.5t203.5 261t321 170t417 61.5t417 -61.5t320.5 -170t203 -261t72.5 -330.5t-72.5 -330.5t-203 -261.5t-320.5 -170.5t-417 -61.5q-302 0 -533.5 106t-356 293t-124.5 425zM502 797q0 -120 38 -222t113 -181t199 -124t285 -45t285 45t199 124 t113 181t38 222q0 96 -23 180t-73.5 156t-124 124t-179.5 81.5t-235 29.5t-235 -29.5t-179.5 -81.5t-124 -124t-73.5 -156t-23 -180zM600 1792l381 295h307l381 -295h-199l-335 127l-336 -127h-199z" />
<glyph unicode="&#xd6;" horiz-adv-x="2273" d="M123 797q0 178 72.5 330.5t203.5 261t321 170t417 61.5t417 -61.5t320.5 -170t203 -261t72.5 -330.5t-72.5 -330.5t-203 -261.5t-320.5 -170.5t-417 -61.5q-302 0 -533.5 106t-356 293t-124.5 425zM502 797q0 -120 38 -222t113 -181t199 -124t285 -45t285 45t199 124 t113 181t38 222q0 96 -23 180t-73.5 156t-124 124t-179.5 81.5t-235 29.5t-235 -29.5t-179.5 -81.5t-124 -124t-73.5 -156t-23 -180zM748 1780v307h282v-307h-282zM1239 1780v307h283v-307h-283z" />
<glyph unicode="&#xd7;" horiz-adv-x="1331" d="M123 90l469 469l-469 469l74 74l469 -469l469 469l73 -74l-469 -469l469 -469l-73 -74l-469 469l-469 -469z" />
<glyph unicode="&#xd8;" horiz-adv-x="2273" d="M123 797q0 178 72.5 330.5t203.5 261t321 170t417 61.5q110 0 202 -14l66 200l104 -32l-63 -187q327 -72 515.5 -283.5t188.5 -506.5q0 -178 -72.5 -330.5t-203 -261.5t-320.5 -170.5t-417 -61.5q-103 0 -222 17l-67 -205l-100 31l63 192q-320 75 -504 286t-184 503z M502 797q0 -196 98 -340.5t293 -200.5l364 1104q-52 8 -120 8q-129 0 -235 -29.5t-179.5 -81.5t-124 -124t-73.5 -156t-23 -180zM997 233q57 -8 140 -8q161 0 285 45t199 124t113 181t38 222q0 129 -42.5 236t-135.5 188.5t-230 117.5z" />
<glyph unicode="&#xd9;" horiz-adv-x="2031" d="M184 664v927h365v-927q0 -106 21 -183.5t58.5 -126.5t98 -78t129 -40t160.5 -11t160.5 11t129 40t98 78t58.5 126.5t21 183.5v927h364v-927q0 -691 -831 -691q-832 0 -832 691zM528 2085h430l279 -293h-240z" />
<glyph unicode="&#xda;" horiz-adv-x="2031" d="M184 664v927h365v-927q0 -106 21 -183.5t58.5 -126.5t98 -78t129 -40t160.5 -11t160.5 11t129 40t98 78t58.5 126.5t21 183.5v927h364v-927q0 -691 -831 -691q-832 0 -832 691zM815 1792l279 295h430l-469 -295h-240z" />
<glyph unicode="&#xdb;" horiz-adv-x="2031" d="M184 664v927h365v-927q0 -106 21 -183.5t58.5 -126.5t98 -78t129 -40t160.5 -11t160.5 11t129 40t98 78t58.5 126.5t21 183.5v927h364v-927q0 -691 -831 -691q-832 0 -832 691zM475 1792l381 295h307l381 -295h-198l-336 127l-336 -127h-199z" />
<glyph unicode="&#xdc;" horiz-adv-x="2031" d="M184 664v927h365v-927q0 -106 21 -183.5t58.5 -126.5t98 -78t129 -40t160.5 -11t160.5 11t129 40t98 78t58.5 126.5t21 183.5v927h364v-927q0 -691 -831 -691q-832 0 -832 691zM625 1780v307h282v-307h-282zM1116 1780v307h283v-307h-283z" />
<glyph unicode="&#xdd;" horiz-adv-x="2011" d="M20 1591h445l541 -598l540 598h445l-803 -843v-748h-365v748zM725 1792l279 295h430l-469 -295h-240z" />
<glyph unicode="&#xdf;" horiz-adv-x="1544" d="M184 0v1169q0 69 14 129t53.5 121t102.5 104t168 70t242 27q133 0 241 -26.5t177 -69t115.5 -99t65.5 -113.5t19 -116q0 -63 -19.5 -119t-51.5 -95t-70 -71t-76 -51.5t-70 -33t-51 -18.5l-20 -5q397 -103 397 -441q0 -176 -123.5 -282.5t-296.5 -106.5q-83 0 -153.5 17.5 t-112 42t-71 49t-40.5 42.5l-12 17l66 221q4 -7 10.5 -18t30.5 -39t50.5 -49.5t68.5 -39t86 -17.5q72 0 107.5 49t35.5 127q0 79 -36 139t-99.5 95.5t-143.5 53t-174 17.5v199q191 0 302.5 66.5t111.5 193.5q0 105 -66 179.5t-190 74.5q-129 0 -191.5 -75.5t-62.5 -187.5 v-1130h-334z" />
<glyph unicode="&#xe0;" horiz-adv-x="1583" d="M61 776q2 8 7.5 22t28 54t52.5 76.5t85.5 81.5t122.5 77t168 54t218 22q135 0 243 -34.5t176.5 -93t103.5 -136t32 -164.5l-18 -424q-2 -51 18 -81.5t64 -30.5q26 0 51.5 10.5t43.5 25.5t32 30t21 25l6 11l67 -221l-11.5 -11.5t-33 -26t-55 -32.5t-76 -25.5t-96.5 -11.5 q-89 0 -150 27t-94.5 80.5t-47 120t-13.5 157.5q-10 -17 -16 -28t-36.5 -55.5t-59.5 -77t-79.5 -78t-101.5 -74.5t-120.5 -50.5t-141.5 -21.5q-158 0 -247 71.5t-89 199.5q0 59 27.5 116t91.5 113.5t159.5 102.5t241 81t326.5 50q0 36 -4 64.5t-18.5 61t-38.5 54.5 t-68.5 36.5t-104.5 14.5q-63 0 -115 -14t-83.5 -36t-55 -49t-34.5 -54t-17 -49t-7 -36l-1 -14zM238 1620h430l278 -293h-239zM467 313q0 -114 119 -114q67 0 130 33t105.5 79.5t75.5 93.5t49 80l15 33v80q-133 -13 -233.5 -43.5t-154.5 -71.5t-80 -83.5t-26 -86.5z" />
<glyph unicode="&#xe1;" horiz-adv-x="1583" d="M61 776q2 8 7.5 22t28 54t52.5 76.5t85.5 81.5t122.5 77t168 54t218 22q135 0 243 -34.5t176.5 -93t103.5 -136t32 -164.5l-18 -424q-2 -51 18 -81.5t64 -30.5q26 0 51.5 10.5t43.5 25.5t32 30t21 25l6 11l67 -221l-11.5 -11.5t-33 -26t-55 -32.5t-76 -25.5t-96.5 -11.5 q-89 0 -150 27t-94.5 80.5t-47 120t-13.5 157.5q-10 -17 -16 -28t-36.5 -55.5t-59.5 -77t-79.5 -78t-101.5 -74.5t-120.5 -50.5t-141.5 -21.5q-158 0 -247 71.5t-89 199.5q0 59 27.5 116t91.5 113.5t159.5 102.5t241 81t326.5 50q0 36 -4 64.5t-18.5 61t-38.5 54.5 t-68.5 36.5t-104.5 14.5q-63 0 -115 -14t-83.5 -36t-55 -49t-34.5 -54t-17 -49t-7 -36l-1 -14zM467 313q0 -114 119 -114q67 0 130 33t105.5 79.5t75.5 93.5t49 80l15 33v80q-133 -13 -233.5 -43.5t-154.5 -71.5t-80 -83.5t-26 -86.5zM524 1327l279 295h430l-469 -295h-240z " />
<glyph unicode="&#xe2;" horiz-adv-x="1583" d="M61 776q2 8 7.5 22t28 54t52.5 76.5t85.5 81.5t122.5 77t168 54t218 22q135 0 243 -34.5t176.5 -93t103.5 -136t32 -164.5l-18 -424q-2 -51 18 -81.5t64 -30.5q26 0 51.5 10.5t43.5 25.5t32 30t21 25l6 11l67 -221l-11.5 -11.5t-33 -26t-55 -32.5t-76 -25.5t-96.5 -11.5 q-89 0 -150 27t-94.5 80.5t-47 120t-13.5 157.5q-10 -17 -16 -28t-36.5 -55.5t-59.5 -77t-79.5 -78t-101.5 -74.5t-120.5 -50.5t-141.5 -21.5q-158 0 -247 71.5t-89 199.5q0 59 27.5 116t91.5 113.5t159.5 102.5t241 81t326.5 50q0 36 -4 64.5t-18.5 61t-38.5 54.5 t-68.5 36.5t-104.5 14.5q-63 0 -115 -14t-83.5 -36t-55 -49t-34.5 -54t-17 -49t-7 -36l-1 -14zM201 1327l381 295h307l381 -295h-199l-336 127l-336 -127h-198zM467 313q0 -114 119 -114q67 0 130 33t105.5 79.5t75.5 93.5t49 80l15 33v80q-133 -13 -233.5 -43.5 t-154.5 -71.5t-80 -83.5t-26 -86.5z" />
<glyph unicode="&#xe3;" horiz-adv-x="1583" d="M61 776q2 8 7.5 22t28 54t52.5 76.5t85.5 81.5t122.5 77t168 54t218 22q135 0 243 -34.5t176.5 -93t103.5 -136t32 -164.5l-18 -424q-2 -51 18 -81.5t64 -30.5q26 0 51.5 10.5t43.5 25.5t32 30t21 25l6 11l67 -221l-11.5 -11.5t-33 -26t-55 -32.5t-76 -25.5t-96.5 -11.5 q-89 0 -150 27t-94.5 80.5t-47 120t-13.5 157.5q-10 -17 -16 -28t-36.5 -55.5t-59.5 -77t-79.5 -78t-101.5 -74.5t-120.5 -50.5t-141.5 -21.5q-158 0 -247 71.5t-89 199.5q0 59 27.5 116t91.5 113.5t159.5 102.5t241 81t326.5 50q0 36 -4 64.5t-18.5 61t-38.5 54.5 t-68.5 36.5t-104.5 14.5q-63 0 -115 -14t-83.5 -36t-55 -49t-34.5 -54t-17 -49t-7 -36l-1 -14zM313 1470q2 9 6.5 24t23 53.5t42.5 67.5t68.5 53t97.5 24q48 0 90.5 -14t73.5 -34t60.5 -40t65 -34t72.5 -14q34 0 62.5 14t44 34t26 40t14.5 34l3 14l82 -115q-2 -9 -6.5 -24 t-23 -53t-42.5 -67t-68.5 -53t-97.5 -24q-49 0 -91.5 14t-73 34t-60 39.5t-65 33.5t-74.5 14q-33 0 -60.5 -14t-43 -33.5t-26.5 -39.5t-15 -34l-3 -14zM467 313q0 -114 119 -114q67 0 130 33t105.5 79.5t75.5 93.5t49 80l15 33v80q-133 -13 -233.5 -43.5t-154.5 -71.5 t-80 -83.5t-26 -86.5z" />
<glyph unicode="&#xe4;" horiz-adv-x="1583" d="M61 776q2 8 7.5 22t28 54t52.5 76.5t85.5 81.5t122.5 77t168 54t218 22q135 0 243 -34.5t176.5 -93t103.5 -136t32 -164.5l-18 -424q-2 -51 18 -81.5t64 -30.5q26 0 51.5 10.5t43.5 25.5t32 30t21 25l6 11l67 -221l-11.5 -11.5t-33 -26t-55 -32.5t-76 -25.5t-96.5 -11.5 q-89 0 -150 27t-94.5 80.5t-47 120t-13.5 157.5q-10 -17 -16 -28t-36.5 -55.5t-59.5 -77t-79.5 -78t-101.5 -74.5t-120.5 -50.5t-141.5 -21.5q-158 0 -247 71.5t-89 199.5q0 59 27.5 116t91.5 113.5t159.5 102.5t241 81t326.5 50q0 36 -4 64.5t-18.5 61t-38.5 54.5 t-68.5 36.5t-104.5 14.5q-63 0 -115 -14t-83.5 -36t-55 -49t-34.5 -54t-17 -49t-7 -36l-1 -14zM336 1356v307h282v-307h-282zM467 313q0 -114 119 -114q67 0 130 33t105.5 79.5t75.5 93.5t49 80l15 33v80q-133 -13 -233.5 -43.5t-154.5 -71.5t-80 -83.5t-26 -86.5zM827 1356 v307h283v-307h-283z" />
<glyph unicode="&#xe5;" horiz-adv-x="1583" d="M61 776q2 8 7.5 22t28 54t52.5 76.5t85.5 81.5t122.5 77t168 54t218 22q135 0 243 -34.5t176.5 -93t103.5 -136t32 -164.5l-18 -424q-2 -51 18 -81.5t64 -30.5q26 0 51.5 10.5t43.5 25.5t32 30t21 25l6 11l67 -221l-11.5 -11.5t-33 -26t-55 -32.5t-76 -25.5t-96.5 -11.5 q-89 0 -150 27t-94.5 80.5t-47 120t-13.5 157.5q-10 -17 -16 -28t-36.5 -55.5t-59.5 -77t-79.5 -78t-101.5 -74.5t-120.5 -50.5t-141.5 -21.5q-158 0 -247 71.5t-89 199.5q0 59 27.5 116t91.5 113.5t159.5 102.5t241 81t326.5 50q0 36 -4 64.5t-18.5 61t-38.5 54.5 t-68.5 36.5t-104.5 14.5q-63 0 -115 -14t-83.5 -36t-55 -49t-34.5 -54t-17 -49t-7 -36l-1 -14zM467 313q0 -114 119 -114q67 0 130 33t105.5 79.5t75.5 93.5t49 80l15 33v80q-133 -13 -233.5 -43.5t-154.5 -71.5t-80 -83.5t-26 -86.5zM520 1526q0 94 69.5 160.5t174.5 66.5 q111 0 179.5 -64t68.5 -163q0 -92 -71 -157.5t-177 -65.5q-104 0 -174 65.5t-70 157.5zM676 1528q0 -41 26.5 -65.5t63.5 -24.5q36 0 63 25.5t27 64.5q0 38 -27 64t-63 26q-37 0 -63.5 -24.5t-26.5 -65.5z" />
<glyph unicode="&#xe6;" horiz-adv-x="2441" d="M61 776q2 8 7.5 22t28 54t52.5 76.5t85.5 81.5t122.5 77t168 54t218 22q291 0 422 -164q178 164 477 164q132 0 239 -27t175.5 -70.5t118 -102t74.5 -117.5t36.5 -121.5t10.5 -110t-8 -86.5l-996 21q1 -69 23 -129.5t66 -111t120 -80t176 -29.5q63 0 115 14.5t83.5 37.5 t55.5 51t35 56t17 51t7 37l1 15l327 -84q-2 -8 -6.5 -23t-25 -56.5t-48.5 -80t-82.5 -85t-121.5 -80t-169.5 -56.5t-222.5 -23q-230 0 -397.5 105.5t-224.5 298.5q-26 -48 -56.5 -93t-84.5 -105t-113 -102.5t-142.5 -73t-172.5 -30.5q-158 0 -247 71.5t-89 199.5 q0 59 27.5 116t91.5 113.5t159.5 102.5t241 81t326.5 50q0 36 -4 64.5t-18.5 61t-38.5 54.5t-68.5 36.5t-104.5 14.5q-63 0 -115 -14t-83.5 -36t-55 -49t-34.5 -54t-17 -49t-7 -36l-1 -14zM467 313q0 -114 119 -114q67 0 130 33t105.5 79.5t75.5 93.5t49 80l15 33v39 q-134 -5 -233.5 -28t-154.5 -58.5t-80.5 -75t-25.5 -82.5zM1313 709l624 20q-1 9 -4.5 23.5t-23.5 52.5t-49.5 67t-88.5 52.5t-135 23.5q-58 0 -107 -13t-81 -34.5t-57.5 -47t-39.5 -50.5t-23 -46.5t-12 -34.5z" />
<glyph unicode="&#xe7;" horiz-adv-x="1591" d="M123 569q0 126 48.5 235t137 188.5t219 125t287.5 45.5q110 0 201.5 -18.5t154 -49.5t112 -71.5t78 -85.5t48.5 -90t27 -85.5t10.5 -71.5t2.5 -49l-1 -19l-328 -84q1 8 2.5 22.5t0.5 56t-7.5 79t-26.5 83.5t-51.5 79.5t-88 56t-130.5 22.5q-169 0 -256.5 -103.5 t-87.5 -265.5q0 -170 97.5 -270t275.5 -100q63 0 114.5 14.5t83 37.5t55 51t34.5 56t17.5 51t7.5 37l1 15l328 -84q-2 -8 -6.5 -23t-25 -56.5t-49 -80t-83 -85t-121 -80t-169 -56.5t-222.5 -23h-8l-31 -86q43 35 111 35q80 0 129 -47.5t49 -128.5q0 -73 -42 -127t-104.5 -79 t-134.5 -25q-48 0 -92 10t-72 24t-49.5 28t-30.5 24l-10 10l37 139q3 -4 8 -10.5t24 -23t40 -29t55 -23t70 -10.5q63 0 100 24.5t37 67.5q0 37 -24 59.5t-62 22.5q-15 0 -28.5 -4.5t-22.5 -11t-16 -13.5t-10 -11l-3 -5l-106 20l63 179q-119 16 -221 61.5t-179.5 118.5 t-122 177.5t-44.5 229.5z" />
<glyph unicode="&#xe8;" horiz-adv-x="1611" d="M123 569q0 126 48.5 235t137 188.5t218.5 125t286 45.5q132 0 238.5 -27t175.5 -70.5t118.5 -102t74 -117.5t36 -121.5t10.5 -110t-8 -86.5l-995 21q1 -69 23 -129.5t66 -111t120 -80t176 -29.5q63 0 115 14.5t83.5 37.5t55 51t34.5 56t17 51t7 37l1 15l328 -84 q-2 -8 -6.5 -23t-25 -56.5t-48.5 -80t-82.5 -85t-121.5 -80t-169.5 -56.5t-222.5 -23q-111 0 -213 24.5t-188.5 74.5t-151 120.5t-101 167t-36.5 209.5zM299 1620h430l279 -293h-240zM483 709l625 20q-1 9 -4.5 23.5t-23.5 52.5t-49.5 67t-88.5 52.5t-135 23.5 q-79 0 -141.5 -24.5t-95.5 -60t-54 -70.5t-27 -59z" />
<glyph unicode="&#xe9;" horiz-adv-x="1611" d="M123 569q0 126 48.5 235t137 188.5t218.5 125t286 45.5q132 0 238.5 -27t175.5 -70.5t118.5 -102t74 -117.5t36 -121.5t10.5 -110t-8 -86.5l-995 21q1 -69 23 -129.5t66 -111t120 -80t176 -29.5q63 0 115 14.5t83.5 37.5t55 51t34.5 56t17 51t7 37l1 15l328 -84 q-2 -8 -6.5 -23t-25 -56.5t-48.5 -80t-82.5 -85t-121.5 -80t-169.5 -56.5t-222.5 -23q-111 0 -213 24.5t-188.5 74.5t-151 120.5t-101 167t-36.5 209.5zM483 709l625 20q-1 9 -4.5 23.5t-23.5 52.5t-49.5 67t-88.5 52.5t-135 23.5q-79 0 -141.5 -24.5t-95.5 -60t-54 -70.5 t-27 -59zM647 1325l279 295h430l-469 -295h-240z" />
<glyph unicode="&#xea;" horiz-adv-x="1611" d="M123 569q0 126 48.5 235t137 188.5t218.5 125t286 45.5q132 0 238.5 -27t175.5 -70.5t118.5 -102t74 -117.5t36 -121.5t10.5 -110t-8 -86.5l-995 21q1 -69 23 -129.5t66 -111t120 -80t176 -29.5q63 0 115 14.5t83.5 37.5t55 51t34.5 56t17 51t7 37l1 15l328 -84 q-2 -8 -6.5 -23t-25 -56.5t-48.5 -80t-82.5 -85t-121.5 -80t-169.5 -56.5t-222.5 -23q-111 0 -213 24.5t-188.5 74.5t-151 120.5t-101 167t-36.5 209.5zM272 1327l381 295h308l380 -295h-198l-336 127l-336 -127h-199zM483 709l625 20q-1 9 -4.5 23.5t-23.5 52.5t-49.5 67 t-88.5 52.5t-135 23.5q-79 0 -141.5 -24.5t-95.5 -60t-54 -70.5t-27 -59z" />
<glyph unicode="&#xeb;" horiz-adv-x="1611" d="M123 569q0 126 48.5 235t137 188.5t218.5 125t286 45.5q132 0 238.5 -27t175.5 -70.5t118.5 -102t74 -117.5t36 -121.5t10.5 -110t-8 -86.5l-995 21q1 -69 23 -129.5t66 -111t120 -80t176 -29.5q63 0 115 14.5t83.5 37.5t55 51t34.5 56t17 51t7 37l1 15l328 -84 q-2 -8 -6.5 -23t-25 -56.5t-48.5 -80t-82.5 -85t-121.5 -80t-169.5 -56.5t-222.5 -23q-111 0 -213 24.5t-188.5 74.5t-151 120.5t-101 167t-36.5 209.5zM459 1356v307h282v-307h-282zM483 709l625 20q-1 9 -4.5 23.5t-23.5 52.5t-49.5 67t-88.5 52.5t-135 23.5 q-79 0 -141.5 -24.5t-95.5 -60t-54 -70.5t-27 -59zM950 1356v307h283v-307h-283z" />
<glyph unicode="&#xec;" horiz-adv-x="706" d="M-160 1620h430l279 -293h-240zM184 0v1137h338v-1137h-338z" />
<glyph unicode="&#xed;" horiz-adv-x="706" d="M184 0v1137h338v-1137h-338zM184 1327l279 295h430l-469 -295h-240z" />
<glyph unicode="&#xee;" horiz-adv-x="706" d="M-180 1327l381 295h307l381 -295h-199l-336 127l-336 -127h-198zM184 0v1137h338v-1137h-338z" />
<glyph unicode="&#xef;" horiz-adv-x="706" d="M-33 1315v307h283v-307h-283zM184 0v1137h338v-1137h-338zM459 1315v307h282v-307h-282z" />
<glyph unicode="&#xf1;" horiz-adv-x="1669" d="M184 0v1137h197l96 -322q1 7 2.5 19.5t13 49t29 69t54.5 73t84.5 69t123.5 48.5t168 20q533 0 533 -467v-696h-338v713q0 112 -74 168.5t-213 56.5q-75 0 -137.5 -26t-98 -62.5t-60 -73t-33.5 -62.5l-9 -26v-688h-338zM449 1470q1 5 3 13t10.5 31t19.5 44t31 46.5t43 44 t57 31t73 12.5q48 0 90.5 -14t74 -34t61 -40t65 -34t72.5 -14q34 0 62 14t43.5 34t26 40t13.5 34l4 14l82 -115q-2 -9 -6.5 -24t-23 -53t-42.5 -67t-68.5 -53t-97.5 -24q-49 0 -91.5 14t-73 34t-60 39.5t-65 33.5t-74.5 14q-33 0 -60.5 -14t-43 -33.5t-26.5 -39.5t-14 -34 l-4 -14z" />
<glyph unicode="&#xf2;" horiz-adv-x="1654" d="M123 569q0 125 48.5 233t137 188.5t222 126.5t294.5 46q163 0 297.5 -46t223.5 -126.5t137.5 -188.5t48.5 -233t-48.5 -234t-137.5 -189.5t-223.5 -126.5t-297.5 -46q-161 0 -294.5 46t-222 126.5t-137 189.5t-48.5 234zM254 1620h430l279 -293h-240zM477 569 q0 -74 18 -137t56.5 -117t108.5 -85t165 -31q94 0 165 31t110.5 85t58.5 117.5t19 136.5t-19 136.5t-58.5 117t-110.5 84.5t-165 31q-95 0 -165 -31t-108.5 -84.5t-56.5 -116.5t-18 -137z" />
<glyph unicode="&#xf3;" horiz-adv-x="1654" d="M123 569q0 125 48.5 233t137 188.5t222 126.5t294.5 46q163 0 297.5 -46t223.5 -126.5t137.5 -188.5t48.5 -233t-48.5 -234t-137.5 -189.5t-223.5 -126.5t-297.5 -46q-161 0 -294.5 46t-222 126.5t-137 189.5t-48.5 234zM477 569q0 -74 18 -137t56.5 -117t108.5 -85 t165 -31q94 0 165 31t110.5 85t58.5 117.5t19 136.5t-19 136.5t-58.5 117t-110.5 84.5t-165 31q-95 0 -165 -31t-108.5 -84.5t-56.5 -116.5t-18 -137zM684 1327l279 295h430l-469 -295h-240z" />
<glyph unicode="&#xf4;" horiz-adv-x="1654" d="M123 569q0 125 48.5 233t137 188.5t222 126.5t294.5 46q163 0 297.5 -46t223.5 -126.5t137.5 -188.5t48.5 -233t-48.5 -234t-137.5 -189.5t-223.5 -126.5t-297.5 -46q-161 0 -294.5 46t-222 126.5t-137 189.5t-48.5 234zM287 1327l381 295h307l381 -295h-199l-336 127 l-336 -127h-198zM477 569q0 -74 18 -137t56.5 -117t108.5 -85t165 -31q94 0 165 31t110.5 85t58.5 117.5t19 136.5t-19 136.5t-58.5 117t-110.5 84.5t-165 31q-95 0 -165 -31t-108.5 -84.5t-56.5 -116.5t-18 -137z" />
<glyph unicode="&#xf6;" horiz-adv-x="1654" d="M123 569q0 125 48.5 233t137 188.5t222 126.5t294.5 46q163 0 297.5 -46t223.5 -126.5t137.5 -188.5t48.5 -233t-48.5 -234t-137.5 -189.5t-223.5 -126.5t-297.5 -46q-161 0 -294.5 46t-222 126.5t-137 189.5t-48.5 234zM432 1284v307h283v-307h-283zM477 569 q0 -74 18 -137t56.5 -117t108.5 -85t165 -31q94 0 165 31t110.5 85t58.5 117.5t19 136.5t-19 136.5t-58.5 117t-110.5 84.5t-165 31q-95 0 -165 -31t-108.5 -84.5t-56.5 -116.5t-18 -137zM924 1284v307h282v-307h-282z" />
<glyph unicode="&#xf7;" horiz-adv-x="1331" d="M41 483v103h1249v-103h-1249zM573 0v229h185v-229h-185zM573 842v229h185v-229h-185z" />
<glyph unicode="&#xf8;" horiz-adv-x="1654" d="M123 569q0 125 48.5 233t137 188.5t222 126.5t294.5 46q66 0 138 -10l90 272l104 -32l-86 -260q217 -58 339 -210.5t122 -353.5q0 -125 -48.5 -234t-137.5 -189.5t-223.5 -126.5t-297.5 -46q-57 0 -139 11l-90 -277l-100 31l88 264q-217 58 -339 210.5t-122 356.5z M477 569q0 -114 43 -205.5t137 -134.5l234 705q-40 4 -66 4q-95 0 -165 -31t-108.5 -84.5t-56.5 -116.5t-18 -137zM760 203q20 -4 65 -4q94 0 165 31t110.5 85t58.5 117.5t19 136.5q0 111 -45.5 201.5t-139.5 132.5z" />
<glyph unicode="&#xf9;" horiz-adv-x="1669" d="M184 440v697h336v-713q0 -112 75 -168.5t214 -56.5q55 0 103 14t81.5 36t61 48.5t44 53t28 48.5t15.5 36l5 14v688h338v-1137h-197l-96 322q-1 -7 -2.5 -19.5t-13 -49t-29 -69.5t-54.5 -73t-84.5 -69t-123.5 -49t-168 -20q-533 0 -533 467zM297 1620h430l279 -293h-240z " />
<glyph unicode="&#xfa;" horiz-adv-x="1669" d="M184 440v697h336v-713q0 -112 75 -168.5t214 -56.5q55 0 103 14t81.5 36t61 48.5t44 53t28 48.5t15.5 36l5 14v688h338v-1137h-197l-96 322q-1 -7 -2.5 -19.5t-13 -49t-29 -69.5t-54.5 -73t-84.5 -69t-123.5 -49t-168 -20q-533 0 -533 467zM584 1327l278 295h430 l-469 -295h-239z" />
<glyph unicode="&#xfb;" horiz-adv-x="1669" d="M184 440v697h336v-713q0 -112 75 -168.5t214 -56.5q55 0 103 14t81.5 36t61 48.5t44 53t28 48.5t15.5 36l5 14v688h338v-1137h-197l-96 322q-1 -7 -2.5 -19.5t-13 -49t-29 -69.5t-54.5 -73t-84.5 -69t-123.5 -49t-168 -20q-533 0 -533 467zM309 1327l381 295h307 l381 -295h-198l-336 127l-336 -127h-199z" />
<glyph unicode="&#xfc;" horiz-adv-x="1669" d="M184 440v697h336v-713q0 -112 75 -168.5t214 -56.5q55 0 103 14t81.5 36t61 48.5t44 53t28 48.5t15.5 36l5 14v688h338v-1137h-197l-96 322q-1 -7 -2.5 -19.5t-13 -49t-29 -69.5t-54.5 -73t-84.5 -69t-123.5 -49t-168 -20q-533 0 -533 467zM457 1315v307h282v-307h-282z M948 1315v307h283v-307h-283z" />
<glyph unicode="&#xfd;" horiz-adv-x="1511" d="M20 1137h371l354 -818l375 818h371l-666 -1264q-102 -195 -210 -276.5t-267 -81.5q-61 0 -116 17.5t-90.5 42.5t-62 50t-38.5 43l-12 17l65 219q2 -7 6.5 -18t23 -39t41 -50t63 -39.5t87.5 -17.5q45 0 84.5 23t73.5 68t59 89.5t56 110.5zM477 1327l279 295h430l-469 -295 h-240z" />
<glyph unicode="&#xff;" horiz-adv-x="1511" d="M20 1137h371l354 -818l375 818h371l-666 -1264q-102 -195 -210 -276.5t-267 -81.5q-61 0 -116 17.5t-90.5 42.5t-62 50t-38.5 43l-12 17l65 219q2 -7 6.5 -18t23 -39t41 -50t63 -39.5t87.5 -17.5q45 0 84.5 23t73.5 68t59 89.5t56 110.5zM358 1315v307h283v-307h-283z M850 1315v307h283v-307h-283z" />
<glyph unicode="&#x152;" horiz-adv-x="2897" d="M123 797q0 178 72.5 330.5t203.5 261t321 170t417 61.5q143 0 301 -31l1317 2v-223h-859q208 -186 246 -463h553v-223h-553q-42 -277 -246 -457h920v-225h-1399q-149 -27 -280 -27q-302 0 -533.5 106t-356 293t-124.5 425zM502 797q0 -120 38 -222t113 -181t199 -124 t285 -45q277 0 433.5 125t190.5 332h-393v223h395q-16 101 -61 183.5t-120.5 146t-189 98.5t-255.5 35q-129 0 -235 -29.5t-179.5 -81.5t-124 -124t-73.5 -156t-23 -180z" />
<glyph unicode="&#x153;" horiz-adv-x="2666" d="M123 569q0 125 48.5 233t137 188.5t222 126.5t294.5 46q350 0 529 -202q176 202 514 202q132 0 238.5 -27t175.5 -70.5t118.5 -102t74 -117.5t36 -121.5t10.5 -110t-8 -86.5l-995 21q1 -69 23 -129.5t66 -111t120 -80t176 -29.5q63 0 115 14.5t83.5 37.5t55 51t34.5 56 t17 51t7 37l1 15l328 -84q-2 -8 -6.5 -23t-25 -56.5t-48.5 -80t-82.5 -85t-121.5 -80t-169.5 -56.5t-222.5 -23q-161 0 -293 52t-221 151q-84 -97 -218 -150t-311 -53q-161 0 -294.5 46t-222 126.5t-137 189.5t-48.5 234zM477 569q0 -74 18 -137t56.5 -117t108.5 -85 t165 -31q94 0 165 31t110.5 85t58.5 117.5t19 136.5t-19 136.5t-58.5 117t-110.5 84.5t-165 31q-95 0 -165 -31t-108.5 -84.5t-56.5 -116.5t-18 -137zM1538 709l625 20q-1 9 -4.5 23.5t-23.5 52.5t-49.5 67t-88.5 52.5t-135 23.5q-79 0 -141.5 -24.5t-95.5 -60t-54 -70.5 t-27 -59z" />
<glyph unicode="&#x178;" horiz-adv-x="2011" d="M20 1591h445l541 -598l540 598h445l-803 -843v-748h-365v748zM618 1780v307h283v-307h-283zM1110 1780v307h283v-307h-283z" />
<glyph unicode="&#x2c6;" horiz-adv-x="2465" d="M696 1296l381 295h307l381 -295h-198l-336 127l-336 -127h-199z" />
<glyph unicode="&#x2dc;" horiz-adv-x="2465" d="M817 1399q2 9 6.5 24t23 53t42.5 67t68.5 53t97.5 24q48 0 90.5 -14t73.5 -34t60.5 -39.5t65 -33.5t72.5 -14q34 0 62.5 14t44 33.5t26 39.5t14.5 34l3 14l82 -115q-2 -9 -6.5 -24t-23 -53t-42.5 -67t-68.5 -53t-97.5 -24q-49 0 -91.5 14t-73 34t-60 39.5t-65 33.5 t-74.5 14q-33 0 -60.5 -14t-43 -33.5t-26.5 -39.5t-15 -34l-3 -14z" />
<glyph unicode="&#x2000;" horiz-adv-x="1108" />
<glyph unicode="&#x2001;" horiz-adv-x="2216" />
<glyph unicode="&#x2002;" horiz-adv-x="1108" />
<glyph unicode="&#x2003;" horiz-adv-x="2216" />
<glyph unicode="&#x2004;" horiz-adv-x="738" />
<glyph unicode="&#x2005;" horiz-adv-x="554" />
<glyph unicode="&#x2006;" horiz-adv-x="369" />
<glyph unicode="&#x2007;" horiz-adv-x="369" />
<glyph unicode="&#x2008;" horiz-adv-x="277" />
<glyph unicode="&#x2009;" horiz-adv-x="443" />
<glyph unicode="&#x200a;" horiz-adv-x="123" />
<glyph unicode="&#x2010;" horiz-adv-x="1028" d="M82 508v199h864v-199h-864z" />
<glyph unicode="&#x2011;" horiz-adv-x="1028" d="M82 508v199h864v-199h-864z" />
<glyph unicode="&#x2012;" horiz-adv-x="1028" d="M82 508v199h864v-199h-864z" />
<glyph unicode="&#x2013;" horiz-adv-x="1044" d="M41 512v102h963v-102h-963z" />
<glyph unicode="&#x2014;" horiz-adv-x="1632" d="M41 512v102h1550v-102h-1550z" />
<glyph unicode="&#x2018;" horiz-adv-x="589" d="M102 985v256q0 71 20.5 139t50 115.5t59.5 84.5t50 55l21 18l207 -54q-9 -4 -25 -12.5t-56.5 -38t-72.5 -62.5t-61 -85.5t-35 -108.5h207v-307h-365z" />
<glyph unicode="&#x2019;" horiz-adv-x="589" d="M80 1038q9 4 25 13t56.5 38.5t72.5 62.5t61 85.5t35 108.5h-207v307h364v-256q0 -71 -20.5 -139t-50 -115.5t-59 -84.5t-49.5 -55l-21 -18z" />
<glyph unicode="&#x201a;" horiz-adv-x="610" d="M80 -307q9 4 25 12.5t56.5 38t72.5 62.5t61 85.5t35 108.5h-207v307h364v-256q0 -71 -20.5 -139t-50 -115t-59 -84t-49.5 -55l-21 -18z" />
<glyph unicode="&#x201c;" horiz-adv-x="1204" d="M102 985v256q0 71 20.5 139t50 115.5t59.5 84.5t50 55l21 18l207 -54q-9 -4 -25 -12.5t-56.5 -38t-72.5 -62.5t-61 -85.5t-35 -108.5h207v-307h-365zM717 985v256q0 71 20.5 139t50.5 115.5t59.5 84.5t50.5 55l20 18l206 -54q-9 -4 -25 -12.5t-56.5 -38t-72.5 -62.5 t-61 -85.5t-35 -108.5h207v-307h-364z" />
<glyph unicode="&#x201d;" horiz-adv-x="1214" d="M80 1038q9 4 25 13t56.5 38.5t72.5 62.5t61 85.5t35 108.5h-207v307h364v-256q0 -71 -20.5 -139t-50 -115.5t-59 -84.5t-49.5 -55l-21 -18zM694 1038q9 4 25 13t56.5 38.5t72.5 62.5t61 85.5t35 108.5h-207v307h365v-256q0 -71 -20.5 -139t-50 -115.5t-59.5 -84.5 t-50 -55l-21 -18z" />
<glyph unicode="&#x201e;" horiz-adv-x="1204" d="M80 -307q9 4 25 12.5t56.5 38t72.5 62.5t61 85.5t35 108.5h-207v307h364v-256q0 -71 -20.5 -139t-50 -115t-59 -84t-49.5 -55l-21 -18zM694 -307q9 4 25 12.5t56.5 38t72.5 62.5t61 85.5t35 108.5h-207v307h365v-256q0 -71 -20.5 -139t-50 -115t-59.5 -84t-50 -55 l-21 -18z" />
<glyph unicode="&#x2022;" horiz-adv-x="1323" d="M61 633l531 -529l-25 5l-499 501zM66 776l2 35l696 -698l-31 -9zM92 905q20 39 21 41l786 -788l-37 -19zM147 1022l27 37l838 -840q-16 -16 -35 -24zM190 326l82 -80l-39 33q-22 17 -43 47zM215 1110l25 20l20 25l852 -854l-22 -20l-21 -23zM301 1186l59 45l824 -823 q-9 -26 -45 -62zM403 1249q9 4 25 12t29.5 13t29.5 8l750 -750q-4 -10 -14.5 -40.5t-18.5 -45.5zM526 1294q59 12 113 9l623 -623q0 -66 -13 -113zM670 1309q85 0 176 -33l391 -387q24 -75 27 -176zM870 1272q120 -42 215 -142q109 -109 146 -219z" />
<glyph unicode="&#x2026;" horiz-adv-x="1830" d="M123 0v307h364v-307h-364zM733 0v287h365v-287h-365zM1343 0v266h365v-266h-365z" />
<glyph unicode="&#x202f;" horiz-adv-x="443" />
<glyph unicode="&#x2039;" horiz-adv-x="735" d="M61 567l412 449h262l-309 -449l309 -448h-262z" />
<glyph unicode="&#x203a;" horiz-adv-x="735" d="M0 119l309 448l-309 449h262l412 -449l-412 -448h-262z" />
<glyph unicode="&#x205f;" horiz-adv-x="554" />
<glyph unicode="&#x20ac;" d="M0 578v102h135q-6 56 -6 115q0 36 4 110h-92v103h109q59 281 260.5 446.5t517.5 165.5q124 0 228.5 -21t177 -56.5t131 -81.5t93 -96.5t60 -101t36 -96.5t16 -81.5t5.5 -56.5v-21l-372 -103q1 10 1.5 26.5t-3 64.5t-13.5 92t-36.5 97t-65 91.5t-105.5 65t-153 26.5 q-167 0 -265.5 -97t-132.5 -263h576v-103h-592q-4 -74 -4 -110q0 -59 6 -115h549v-102h-530q40 -164 143.5 -258.5t271.5 -94.5q87 0 155.5 25t108.5 65.5t67.5 89.5t38 97.5t15.5 89t3 65.5l-1 25l377 -98q0 -8 -1 -21.5t-9.5 -55t-21.5 -82t-40.5 -95.5t-64.5 -102.5 t-96.5 -95.5t-132 -82t-175.5 -55.5t-223 -21.5q-316 0 -525.5 164.5t-272.5 440.5h-152z" />
<glyph unicode="&#x25fc;" horiz-adv-x="1136" d="M0 0v1137h1137v-1137h-1137z" />
</font>
</defs>
</svg>
